<svg width="19" height="17" fill="none" xmlns="http://www.w3.org/2000/svg"><path fill-rule="evenodd" clip-rule="evenodd" d="M2.833 0A2.833 2.833 0 000 2.833v11.334A2.833 2.833 0 002.833 17h7.556a2.833 2.833 0 002.833-2.833V14h-1.889v.167a.944.944 0 01-.944.944H2.833a.944.944 0 01-.944-.944V2.833c0-.521.423-.944.944-.944h7.556c.522 0 .944.423.944.944V3h1.89v-.167A2.833 2.833 0 0010.388 0H2.833z" fill="#7776D1"/><path fill-rule="evenodd" clip-rule="evenodd" d="M11.82 12L19 8.5 11.82 5v2.894H5v1.212h6.82V12z" fill="#7776D1"/></svg>