<svg width="20" height="26" fill="none" xmlns="http://www.w3.org/2000/svg"><path d="M2.925 9.634c0-1.478 1.225-2.655 2.702-2.655h7.91l-1.67 1.642a1.436 1.436 0 000 2.025c.278.274.668.41 1.03.41s.752-.136 1.03-.41l4.179-4.105a1.436 1.436 0 000-2.025L13.928.41a1.499 1.499 0 00-2.062 0 1.436 1.436 0 000 2.025l1.672 1.642H5.627C2.507 4.078 0 6.568 0 9.606v7.91l2.925-2.874V9.634zm14.15 1.696v5.036c0 1.478-1.225 2.655-2.702 2.655h-7.91l1.67-1.642a1.436 1.436 0 000-2.025 1.5 1.5 0 00-2.06 0l-4.179 4.105a1.436 1.436 0 000 2.025l4.178 4.105c.279.274.669.411 1.031.411.362 0 .752-.137 1.03-.41a1.436 1.436 0 000-2.026l-1.67-1.642h7.91c3.12 0 5.627-2.49 5.627-5.528V8.457l-2.925 2.873z" fill="#241C46"/></svg>