<svg width="59" height="58" fill="none" xmlns="http://www.w3.org/2000/svg"><path d="M43.047 40.908H16.931a2.363 2.363 0 010-4.725h26.116l-5.592-5.592a2.25 2.25 0 113.182-3.182l9.546 9.546a2.25 2.25 0 010 3.182l-9.546 9.546a2.25 2.25 0 11-3.182-3.182l5.592-5.593zM15.952 17.092H42.07a2.363 2.363 0 010 4.725H15.952l5.593 5.592a2.25 2.25 0 11-3.182 3.182l-9.546-9.546a2.25 2.25 0 010-3.182l9.546-9.546a2.25 2.25 0 013.182 3.182l-5.593 5.593z" fill="url(#paint0_linear)"/><defs><linearGradient id="paint0_linear" x1="22.34" y1="-3.615" x2="17.542" y2="80.382" gradientUnits="userSpaceOnUse"><stop offset=".277" stop-color="#10BBEB"/><stop offset=".895" stop-color="#00FFE0"/></linearGradient></defs></svg>