<svg width="175" height="62" viewBox="0 0 175 62" fill="none" xmlns="http://www.w3.org/2000/svg">
<g filter="url(#filter0_d)">
<path d="M123.982 17.9522C124.435 17.1513 123.856 16.1593 122.936 16.1593H111.2C110.536 16.1593 109.998 16.6972 109.998 17.3607C109.998 18.0243 110.536 18.5622 111.2 18.5622H122.936C123.369 18.5622 123.769 18.3291 123.982 17.9522Z" fill="url(#paint0_linear)"/>
<path d="M123.982 17.9522C124.435 17.1513 123.856 16.1593 122.936 16.1593H111.2C110.536 16.1593 109.998 16.6972 109.998 17.3607C109.998 18.0243 110.536 18.5622 111.2 18.5622H122.936C123.369 18.5622 123.769 18.3291 123.982 17.9522Z" fill="url(#paint1_linear)"/>
<path d="M123.982 27.6677C124.435 26.8667 123.856 25.8747 122.936 25.8747H111.2C110.536 25.8747 109.998 26.4126 109.998 27.0762C109.998 27.7397 110.536 28.2776 111.2 28.2776H122.936C123.369 28.2776 123.769 28.0446 123.982 27.6677Z" fill="url(#paint2_linear)"/>
<path d="M123.982 37.3831C124.435 36.5822 123.856 35.5902 122.936 35.5902H111.2C110.536 35.5902 109.998 36.1281 109.998 36.7916C109.998 37.4552 110.536 37.9931 111.2 37.9931H122.936C123.369 37.9931 123.769 37.76 123.982 37.3831Z" fill="url(#paint3_linear)"/>
<path d="M154.998 22.9248V21.5398C154.998 20.1128 154.441 18.7442 153.451 17.7352C152.461 16.7261 151.118 16.1593 149.718 16.1593H141.993C140.889 16.1593 139.993 17.0547 139.993 18.1593V36.821C139.993 37.4721 140.521 38 141.172 38C141.824 38 142.351 37.4721 142.351 36.821V30.3053C142.351 29.2008 143.247 28.3053 144.351 28.3053H145.604C146.324 28.3053 146.988 28.692 147.343 29.3179L151.933 37.4017C152.143 37.7715 152.535 38 152.961 38C153.867 38 154.436 37.0225 153.989 36.2346L149.597 28.5003C149.548 28.4133 149.611 28.3053 149.711 28.3053C150.405 28.3062 151.092 28.1677 151.734 27.8977C152.375 27.6277 152.958 27.2316 153.449 26.7318C153.94 26.2321 154.329 25.6387 154.595 24.9854C154.861 24.3322 154.998 23.6319 154.998 22.9248ZM142.351 20.5622C142.351 19.4576 143.247 18.5622 144.351 18.5622H149.718C150.492 18.564 151.234 18.8783 151.782 19.4363C152.329 19.9943 152.638 20.7507 152.64 21.5398V22.9248C152.638 23.7139 152.329 24.4702 151.782 25.0283C151.234 25.5863 150.492 25.9006 149.718 25.9024H144.351C143.247 25.9024 142.351 25.007 142.351 23.9024V20.5622Z" fill="url(#paint4_linear)"/>
<path d="M35.0043 22.9248V21.5398C35.0043 20.1128 34.448 18.7442 33.4578 17.7352C32.4676 16.7261 31.1246 16.1593 29.7242 16.1593H22C20.8954 16.1593 20 17.0547 20 18.1593V36.821C20 37.4721 20.5279 38 21.179 38C21.8302 38 22.358 37.4721 22.358 36.821V30.3053C22.358 29.2008 23.2534 28.3053 24.358 28.3053H25.6311C26.3508 28.3053 27.015 28.692 27.3703 29.3179L31.96 37.4017C32.17 37.7715 32.5625 38 32.9878 38C33.8938 38 34.4629 37.0225 34.0155 36.2346L29.6243 28.5003C29.5749 28.4133 29.6377 28.3053 29.7378 28.3053C31.1358 28.3017 32.4753 27.7332 33.4626 26.7245C34.4499 25.7159 35.0043 24.3494 35.0043 22.9248ZM22.358 20.5622C22.358 19.4576 23.2534 18.5622 24.358 18.5622H29.7242C30.4987 18.564 31.2408 18.8783 31.7884 19.4363C32.336 19.9943 32.6445 20.7507 32.6463 21.5398V22.9248C32.6445 23.7139 32.336 24.4702 31.7884 25.0283C31.2408 25.5863 30.4987 25.9006 29.7242 25.9024H24.358C23.2534 25.9024 22.358 25.007 22.358 23.9024V20.5622Z" fill="url(#paint5_linear)"/>
<path d="M50.5449 37.9931C51.0292 37.9931 51.4645 37.6975 51.643 37.2473L55.604 27.2595C56.2717 25.5759 58.6546 25.5759 59.3223 27.2595L63.2832 37.2473C63.4618 37.6975 63.897 37.9931 64.3813 37.9931C65.2155 37.9931 65.7869 37.1518 65.4794 36.3764L59.3223 20.8481C58.6547 19.1644 56.2716 19.1644 55.6039 20.8481L49.4468 36.3764C49.1393 37.1518 49.7107 37.9931 50.5449 37.9931Z" fill="url(#paint6_linear)"/>
<path d="M94.0684 37.3831C94.5214 36.5822 93.9428 35.5902 93.0227 35.5902H87.5125C85.9801 35.5902 85.017 33.9376 85.7724 32.6043L93.3977 19.1451C94.153 17.8119 93.1899 16.1593 91.6575 16.1593H81.1982C80.5346 16.1593 79.9967 16.6972 79.9967 17.3607C79.9967 18.0243 80.5346 18.5622 81.1982 18.5622H87.5799C89.1124 18.5622 90.0755 20.2149 89.3199 21.5482L81.3626 35.5902C80.7532 36.6623 81.5275 37.9931 82.7607 37.9931H93.0227C93.4557 37.9931 93.8552 37.76 94.0684 37.3831Z" fill="url(#paint7_linear)"/>
<path d="M123.982 27.6677C124.435 26.8667 123.856 25.8747 122.936 25.8747H111.2C110.536 25.8747 109.998 26.4126 109.998 27.0762C109.998 27.7397 110.536 28.2776 111.2 28.2776H122.936C123.369 28.2776 123.769 28.0446 123.982 27.6677Z" fill="url(#paint8_linear)"/>
<path d="M123.982 37.3831C124.435 36.5822 123.856 35.5902 122.936 35.5902H111.2C110.536 35.5902 109.998 36.1281 109.998 36.7916C109.998 37.4552 110.536 37.9931 111.2 37.9931H122.936C123.369 37.9931 123.769 37.76 123.982 37.3831Z" fill="url(#paint9_linear)"/>
<path d="M50.5449 37.9931C51.0292 37.9931 51.4645 37.6975 51.643 37.2473L55.604 27.2595C56.2717 25.5759 58.6546 25.5759 59.3223 27.2595L63.2832 37.2473C63.4618 37.6975 63.897 37.9931 64.3813 37.9931C65.2155 37.9931 65.7869 37.1518 65.4794 36.3764L59.3223 20.8481C58.6547 19.1644 56.2716 19.1644 55.6039 20.8481L49.4468 36.3764C49.1393 37.1518 49.7107 37.9931 50.5449 37.9931Z" fill="url(#paint10_linear)"/>
</g>
<defs>
<filter id="filter0_d" x="0" y="0.159241" width="174.998" height="61.8407" filterUnits="userSpaceOnUse" color-interpolation-filters="sRGB">
<feFlood flood-opacity="0" result="BackgroundImageFix"/>
<feColorMatrix in="SourceAlpha" type="matrix" values="0 0 0 0 0 0 0 0 0 0 0 0 0 0 0 0 0 0 127 0"/>
<feOffset dy="4"/>
<feGaussianBlur stdDeviation="10"/>
<feColorMatrix type="matrix" values="0 0 0 0 0.0697633 0 0 0 0 0.395781 0 0 0 0 0.579167 0 0 0 1 0"/>
<feBlend mode="normal" in2="BackgroundImageFix" result="effect1_dropShadow"/>
<feBlend mode="normal" in="SourceGraphic" in2="effect1_dropShadow" result="shape"/>
</filter>
<linearGradient id="paint0_linear" x1="3.125" y1="16" x2="15.2422" y2="82.6932" gradientUnits="userSpaceOnUse">
<stop offset="0.277134" stop-color="#10BBEB"/>
<stop offset="0.894626" stop-color="#00FFE0"/>
</linearGradient>
<linearGradient id="paint1_linear" x1="3.125" y1="16" x2="15.2422" y2="82.6932" gradientUnits="userSpaceOnUse">
<stop offset="0.277134" stop-color="#10BBEB"/>
<stop offset="0.894626" stop-color="#00FFE0"/>
</linearGradient>
<linearGradient id="paint2_linear" x1="3.125" y1="16" x2="15.2422" y2="82.6932" gradientUnits="userSpaceOnUse">
<stop offset="0.277134" stop-color="#10BBEB"/>
<stop offset="0.894626" stop-color="#00FFE0"/>
</linearGradient>
<linearGradient id="paint3_linear" x1="3.125" y1="16" x2="15.2422" y2="82.6932" gradientUnits="userSpaceOnUse">
<stop offset="0.277134" stop-color="#10BBEB"/>
<stop offset="0.894626" stop-color="#00FFE0"/>
</linearGradient>
<linearGradient id="paint4_linear" x1="3.125" y1="16" x2="15.2422" y2="82.6932" gradientUnits="userSpaceOnUse">
<stop offset="0.277134" stop-color="#10BBEB"/>
<stop offset="0.894626" stop-color="#00FFE0"/>
</linearGradient>
<linearGradient id="paint5_linear" x1="3.125" y1="16" x2="15.2422" y2="82.6932" gradientUnits="userSpaceOnUse">
<stop offset="0.277134" stop-color="#10BBEB"/>
<stop offset="0.894626" stop-color="#00FFE0"/>
</linearGradient>
<linearGradient id="paint6_linear" x1="3.125" y1="16" x2="15.2422" y2="82.6932" gradientUnits="userSpaceOnUse">
<stop offset="0.277134" stop-color="#10BBEB"/>
<stop offset="0.894626" stop-color="#00FFE0"/>
</linearGradient>
<linearGradient id="paint7_linear" x1="3.125" y1="16" x2="15.2422" y2="82.6932" gradientUnits="userSpaceOnUse">
<stop offset="0.277134" stop-color="#10BBEB"/>
<stop offset="0.894626" stop-color="#00FFE0"/>
</linearGradient>
<linearGradient id="paint8_linear" x1="3.125" y1="16" x2="15.2422" y2="82.6932" gradientUnits="userSpaceOnUse">
<stop offset="0.277134" stop-color="#10BBEB"/>
<stop offset="0.894626" stop-color="#00FFE0"/>
</linearGradient>
<linearGradient id="paint9_linear" x1="3.125" y1="16" x2="15.2422" y2="82.6932" gradientUnits="userSpaceOnUse">
<stop offset="0.277134" stop-color="#10BBEB"/>
<stop offset="0.894626" stop-color="#00FFE0"/>
</linearGradient>
<linearGradient id="paint10_linear" x1="3.125" y1="16" x2="15.2422" y2="82.6932" gradientUnits="userSpaceOnUse">
<stop offset="0.277134" stop-color="#10BBEB"/>
<stop offset="0.894626" stop-color="#00FFE0"/>
</linearGradient>
</defs>
</svg>
