<svg width="1440" height="1420" viewBox="0 0 1440 1420" fill="none" xmlns="http://www.w3.org/2000/svg">
<path d="M2210.87 -644.428C2111.67 -730.569 1899.54 -446.103 1795.29 -389.04C1658.06 -313.938 1523.24 -426.953 1436.89 -349.382C1385.51 -303.235 1319.34 -153.86 1473.25 37.1477C1578.56 167.831 1366.74 340.359 1534.8 444.186C1694.95 543.128 1775.76 208.459 1920.36 254.077C2071.11 301.617 2191.55 236.073 2237.39 160.76C2291.45 71.939 2327.65 -12.3852 2203.53 -168.249C2105.64 -291.191 2347.1 -526.124 2210.87 -644.428Z" stroke="#7776D1" stroke-miterlimit="10" stroke-linecap="round" stroke-linejoin="round"/>
<path opacity="0.9756" d="M1794.04 -400.714C1653.03 -327.199 1523.52 -424.466 1435.71 -344.233C1383.94 -297.098 1314.94 -150.774 1463.8 39.546C1566.86 171.322 1367.18 342.316 1536 443.286C1699.25 540.924 1778.07 219.991 1922.86 265.416C2075.2 313.132 2192.59 240.587 2240.9 165.874C2298.59 76.6649 2335.22 -12.5262 2213.03 -169.466C2115.63 -294.577 2345.6 -522.58 2207.59 -640.849C2107.19 -726.919 1898.86 -455.36 1794.04 -400.714Z" stroke="#7776D1" stroke-width="0.9844" stroke-miterlimit="10" stroke-linecap="round" stroke-linejoin="round"/>
<path opacity="0.9512" d="M1792.79 -412.405C1647.94 -340.495 1523.8 -421.997 1434.54 -339.102C1382.39 -290.997 1310.53 -147.653 1454.36 41.9443C1555.17 174.867 1367.65 344.22 1537.2 442.387C1703.56 538.702 1780.38 231.506 1925.37 276.772C2079.29 324.647 2193.66 245.137 2244.43 171.023C2305.78 81.4436 2342.79 -12.6496 2222.55 -170.647C2125.66 -297.962 2344.12 -519.035 2204.31 -637.269C2102.7 -723.269 1898.12 -464.689 1792.79 -412.405Z" stroke="#7776D1" stroke-width="0.9688" stroke-miterlimit="10" stroke-linecap="round" stroke-linejoin="round"/>
<path opacity="0.9268" d="M1791.53 -424.078C1642.77 -353.79 1524.29 -419.3 1433.36 -333.953C1380.93 -284.737 1306.09 -144.461 1444.91 44.3424C1543.51 178.429 1368.17 346.107 1538.41 441.488C1707.94 536.463 1782.7 243.038 1927.89 288.128C2083.38 336.162 2194.79 249.686 2247.95 176.154C2313.01 86.187 2350.39 -12.826 2232.07 -171.846C2135.68 -301.383 2342.64 -515.509 2201.05 -633.707C2098.22 -719.618 1897.32 -474.052 1791.53 -424.078Z" stroke="#7776D1" stroke-width="0.9532" stroke-miterlimit="10" stroke-linecap="round" stroke-linejoin="round"/>
<path opacity="0.9024" d="M1790.28 -435.752C1637.56 -367.121 1524.63 -416.76 1432.18 -328.821C1379.38 -278.6 1301.59 -141.199 1435.44 46.7406C1531.8 182.026 1368.69 347.941 1539.59 440.589C1712.32 534.206 1785.01 254.571 1930.37 299.484C2087.45 347.677 2195.92 254.236 2251.46 181.303C2320.27 90.9482 2357.99 -13.0022 2241.57 -173.028C2145.7 -304.822 2341.14 -511.964 2197.75 -630.127C2093.73 -715.986 1896.46 -483.468 1790.28 -435.752Z" stroke="#7776D1" stroke-width="0.9376" stroke-miterlimit="10" stroke-linecap="round" stroke-linejoin="round"/>
<path opacity="0.878" d="M1789.03 -447.425C1632.27 -380.488 1524.98 -414.221 1431 -323.672C1377.84 -272.446 1297.08 -137.866 1426 49.1386C1520.12 185.676 1369.29 349.757 1540.81 439.689C1716.77 531.931 1787.34 266.103 1932.91 310.822C2091.58 359.174 2197.12 258.785 2255 186.417C2327.58 95.6916 2365.64 -13.2139 2251.11 -174.245C2155.77 -308.296 2339.67 -508.455 2194.51 -626.583C2089.25 -712.336 1895.58 -492.92 1789.03 -447.425Z" stroke="#7776D1" stroke-width="0.922" stroke-miterlimit="10" stroke-linecap="round" stroke-linejoin="round"/>
<path opacity="0.8537" d="M1787.78 -459.099C1626.95 -393.872 1525.32 -411.682 1429.82 -318.523C1376.29 -266.292 1292.52 -134.481 1416.53 51.5545C1508.41 189.379 1369.89 351.538 1542.01 438.807C1721.21 529.656 1789.65 277.653 1935.41 322.196C2095.67 370.724 2198.32 263.37 2258.53 191.583C2334.9 100.488 2373.29 -13.4255 2260.62 -175.408C2165.82 -311.716 2338.19 -504.893 2191.23 -622.986C2084.77 -708.685 1894.64 -502.442 1787.78 -459.099Z" stroke="#7776D1" stroke-width="0.9065" stroke-miterlimit="10" stroke-linecap="round" stroke-linejoin="round"/>
<path opacity="0.8293" d="M1786.53 -470.772C1621.55 -407.308 1525.65 -409.16 1428.64 -313.374C1374.74 -260.138 1287.92 -131.042 1407.08 53.9528C1496.71 193.1 1370.55 353.284 1543.21 437.891C1725.7 527.328 1791.96 289.168 1937.92 333.535C2099.74 382.221 2199.55 267.937 2262.05 196.697C2342.27 105.249 2380.95 -13.6899 2270.14 -176.625C2175.88 -315.226 2336.71 -501.384 2187.97 -619.441C2080.28 -705.035 1893.67 -512 1786.53 -470.772Z" stroke="#7776D1" stroke-width="0.8909" stroke-miterlimit="10" stroke-linecap="round" stroke-linejoin="round"/>
<path opacity="0.8049" d="M1785.26 -482.446C1616.12 -420.781 1525.95 -406.638 1427.46 -308.225C1373.19 -254.001 1283.26 -127.515 1397.62 56.3509C1485.01 196.856 1371.22 354.977 1544.39 437.009C1730.18 525.001 1794.27 300.718 1940.4 344.908C2103.81 393.753 2200.78 272.557 2265.54 201.846C2349.62 110.063 2388.62 -13.9369 2279.62 -177.806C2185.93 -318.699 2335.2 -497.84 2184.66 -615.862C2075.8 -701.385 1892.67 -521.61 1785.26 -482.446Z" stroke="#7776D1" stroke-width="0.8753" stroke-miterlimit="10" stroke-linecap="round" stroke-linejoin="round"/>
<path opacity="0.7805" d="M1784.01 -494.137C1610.64 -434.323 1526.29 -404.152 1426.28 -303.094C1371.62 -247.865 1278.57 -123.971 1388.17 58.749C1473.29 200.665 1371.92 356.634 1545.6 436.092C1734.73 522.62 1796.59 312.215 1942.92 356.229C2107.91 405.233 2202.07 277.142 2269.08 206.96C2357.05 114.842 2396.34 -14.2367 2289.16 -179.023C2196.03 -322.226 2333.73 -494.331 2181.41 -612.318C2071.31 -697.753 1891.63 -531.273 1784.01 -494.137Z" stroke="#7776D1" stroke-width="0.8597" stroke-miterlimit="10" stroke-linecap="round" stroke-linejoin="round"/>
<path opacity="0.7561" d="M1782.76 -505.81C1605.14 -447.884 1526.6 -401.63 1425.1 -297.945C1370.07 -241.728 1273.83 -120.338 1378.71 61.1474C1461.55 204.491 1372.63 358.275 1546.8 435.21C1739.29 520.24 1798.9 323.766 1945.44 367.603C2112.02 416.766 2203.38 281.78 2272.61 212.109C2364.49 119.674 2404.06 -14.5186 2298.68 -180.205C2206.13 -325.718 2332.25 -490.769 2178.15 -608.738C2066.83 -694.102 1890.57 -540.972 1782.76 -505.81Z" stroke="#7776D1" stroke-width="0.8441" stroke-miterlimit="10" stroke-linecap="round" stroke-linejoin="round"/>
<path opacity="0.7317" d="M1781.51 -517.484C1599.61 -461.497 1526.92 -399.126 1423.92 -292.796C1368.5 -235.592 1269.06 -116.635 1369.26 63.5632C1449.79 208.389 1373.38 359.879 1548 434.311C1743.87 517.806 1801.23 335.298 1947.94 378.959C2116.09 428.298 2204.68 286.417 2276.13 217.258C2371.95 124.523 2411.8 -14.8185 2308.2 -181.386C2216.24 -329.227 2330.77 -487.224 2174.88 -605.158C2062.34 -690.452 1889.5 -550.705 1781.51 -517.484Z" stroke="#7776D1" stroke-width="0.8285" stroke-miterlimit="10" stroke-linecap="round" stroke-linejoin="round"/>
<path opacity="0.7073" d="M1780.25 -529.157C1594.02 -475.181 1527.22 -396.623 1422.73 -287.664C1366.93 -229.473 1264.21 -112.897 1359.79 65.9437C1438.02 212.303 1374.16 361.431 1549.18 433.394C1748.46 515.337 1803.43 347.112 1950.43 390.297C2120.06 440.13 2205.98 291.037 2279.62 222.389C2379.39 129.372 2419.52 -15.1536 2317.68 -182.585C2226.32 -332.771 2329.28 -483.698 2171.58 -601.596C2057.86 -686.802 1888.39 -560.492 1780.25 -529.157Z" stroke="#7776D1" stroke-width="0.8129" stroke-miterlimit="10" stroke-linecap="round" stroke-linejoin="round"/>
<path opacity="0.6829" d="M1779 -540.831C1588.43 -488.899 1527.54 -394.119 1421.55 -282.515C1365.36 -223.337 1259.31 -109.106 1350.35 68.3418C1426.22 216.253 1374.95 362.947 1550.4 432.495C1753.09 512.851 1805.76 358.645 1952.95 401.636C2124.17 451.645 2207.34 295.693 2283.17 227.503C2386.89 134.221 2427.31 -15.5062 2327.21 -183.802C2236.48 -336.351 2327.81 -480.188 2168.32 -598.034C2053.38 -683.152 1887.26 -570.332 1779 -540.831Z" stroke="#7776D1" stroke-width="0.7973" stroke-miterlimit="10" stroke-linecap="round" stroke-linejoin="round"/>
<path opacity="0.6585" d="M1777.75 -552.504C1582.79 -502.689 1527.84 -391.632 1420.39 -277.366C1363.81 -217.2 1254.36 -105.244 1340.9 70.7578C1414.42 220.274 1375.76 364.464 1551.6 431.613C1757.75 510.347 1808.07 370.195 1955.45 413.01C2128.25 463.195 2208.68 300.383 2286.67 232.652C2394.38 139.123 2435.08 -15.8412 2336.71 -184.983C2246.61 -339.895 2326.31 -476.644 2165.04 -594.455C2048.89 -679.519 1886.11 -580.207 1777.75 -552.504Z" stroke="#7776D1" stroke-width="0.7817" stroke-miterlimit="10" stroke-linecap="round" stroke-linejoin="round"/>
<path opacity="0.6341" d="M1776.48 -564.178C1577.14 -516.531 1528.12 -389.146 1419.19 -272.217C1362.23 -211.081 1249.33 -101.347 1331.43 73.1559C1402.55 224.294 1376.59 365.928 1552.79 430.731C1762.4 507.808 1810.38 381.745 1957.97 424.383C2132.34 474.745 2210.06 305.092 2290.22 237.819C2401.93 144.061 2442.91 -16.1762 2346.25 -186.147C2256.78 -343.439 2324.83 -473.1 2161.76 -590.875C2044.41 -675.869 1884.97 -590.099 1776.48 -564.178Z" stroke="#7776D1" stroke-width="0.7661" stroke-miterlimit="10" stroke-linecap="round" stroke-linejoin="round"/>
<path opacity="0.6098" d="M1775.23 -575.851C1571.46 -530.444 1528.42 -386.659 1418.01 -267.068C1360.66 -204.945 1244.24 -97.3792 1321.97 75.5717C1390.64 228.385 1377.42 367.356 1553.98 429.832C1767.05 505.234 1812.69 393.295 1960.46 435.739C2136.42 486.277 2211.41 309.8 2293.71 242.95C2409.42 148.981 2450.7 -16.5642 2355.73 -187.346C2266.93 -347.019 2323.34 -469.555 2158.48 -587.295C2039.92 -672.219 1883.8 -600.044 1775.23 -575.851Z" stroke="#7776D1" stroke-width="0.7506" stroke-miterlimit="10" stroke-linecap="round" stroke-linejoin="round"/>
<path opacity="0.5854" d="M1773.98 -587.542C1565.77 -544.428 1528.7 -384.191 1416.83 -261.937C1359.09 -198.843 1239.11 -93.3942 1312.52 77.9521C1378.72 232.476 1378.28 368.731 1555.19 428.915C1771.76 502.588 1815.01 404.81 1962.98 447.06C2140.5 497.757 2212.81 314.472 2297.25 248.064C2417 153.883 2458.56 -16.9699 2365.27 -188.563C2277.16 -350.634 2321.87 -466.046 2155.22 -583.751C2035.44 -668.569 1882.62 -610.025 1773.98 -587.542Z" stroke="#7776D1" stroke-width="0.735" stroke-miterlimit="10" stroke-linecap="round" stroke-linejoin="round"/>
<path opacity="0.561" d="M1772.73 -599.216C1560.07 -558.464 1529 -381.705 1415.65 -256.788C1357.5 -192.725 1233.89 -89.3384 1303.06 80.3679C1366.74 236.637 1379.13 370.124 1556.37 428.033C1776.45 499.943 1817.3 416.36 1965.46 458.434C2144.58 509.307 2214.18 319.198 2300.74 253.213C2424.52 158.855 2466.39 -17.3402 2374.75 -189.744C2287.33 -354.214 2320.36 -462.502 2151.93 -580.171C2030.96 -664.919 1881.44 -620.041 1772.73 -599.216Z" stroke="#7776D1" stroke-width="0.7194" stroke-miterlimit="10" stroke-linecap="round" stroke-linejoin="round"/>
<path opacity="0.5366" d="M1771.48 -610.889C1554.36 -572.554 1529.28 -379.218 1414.47 -251.639C1355.93 -186.588 1228.62 -85.265 1293.61 82.7662C1354.74 240.799 1380.01 371.465 1557.59 427.134C1781.19 497.245 1819.63 427.875 1967.98 469.79C2148.68 520.822 2215.57 323.942 2304.28 258.362C2432.12 163.846 2474.28 -17.728 2384.29 -190.926C2297.57 -357.811 2318.89 -458.957 2148.67 -576.592C2026.47 -661.286 1880.26 -630.092 1771.48 -610.889Z" stroke="#7776D1" stroke-width="0.7038" stroke-miterlimit="10" stroke-linecap="round" stroke-linejoin="round"/>
<path opacity="0.5122" d="M1770.22 -622.563C1548.64 -586.713 1529.56 -376.749 1413.31 -246.507C1354.37 -180.487 1223.3 -81.1563 1284.16 85.1468C1342.66 244.978 1380.91 372.752 1558.79 426.217C1785.91 494.495 1821.96 439.389 1970.51 481.128C2152.79 532.336 2216.98 328.668 2307.81 263.476C2439.7 168.819 2482.16 -18.1689 2393.8 -192.143C2307.81 -361.443 2317.41 -455.431 2145.4 -573.047C2021.99 -657.636 1879.06 -640.161 1770.22 -622.563Z" stroke="#7776D1" stroke-width="0.6882" stroke-miterlimit="10" stroke-linecap="round" stroke-linejoin="round"/>
<path opacity="0.4878" d="M1768.97 -634.236C1542.92 -600.944 1529.85 -374.263 1412.12 -241.358C1352.8 -174.368 1217.89 -76.995 1274.71 87.5623C1330.54 249.245 1381.81 374.039 1560 425.335C1790.67 491.743 1824.28 450.939 1973.03 492.484C2156.9 543.851 2218.41 333.428 2311.35 268.607C2447.3 173.809 2490.09 -18.5923 2403.34 -193.342C2318.08 -365.058 2315.95 -451.904 2142.14 -569.485C2017.5 -653.986 1877.86 -650.265 1768.97 -634.236Z" stroke="#7776D1" stroke-width="0.6726" stroke-miterlimit="10" stroke-linecap="round" stroke-linejoin="round"/>
<path opacity="0.4634" d="M1767.7 -645.91C1537.18 -615.245 1530.11 -371.794 1410.93 -236.209C1351.19 -168.249 1212.39 -72.8155 1265.23 89.9608C1318.32 253.495 1382.67 375.291 1561.18 424.436C1795.39 488.922 1826.57 462.454 1975.51 503.841C2160.95 555.366 2219.78 338.19 2314.86 273.756C2454.88 178.852 2498.01 -19.0152 2412.84 -194.523C2328.34 -368.673 2314.45 -448.36 2138.87 -565.888C2013.02 -650.336 1876.68 -660.404 1767.7 -645.91Z" stroke="#7776D1" stroke-width="0.657" stroke-miterlimit="10" stroke-linecap="round" stroke-linejoin="round"/>
<path opacity="0.439" d="M1766.45 -657.583C1531.45 -629.616 1530.38 -369.326 1409.75 -231.06C1349.61 -162.13 1206.84 -68.6188 1255.78 92.3766C1306.07 257.798 1383.59 376.525 1562.38 423.554C1800.15 486.101 1828.9 474.004 1978.01 515.214C2165.04 566.898 2221.2 342.986 2318.37 278.905C2462.46 183.895 2505.92 -19.4208 2422.34 -195.687C2338.62 -372.27 2312.95 -444.798 2135.59 -562.291C2008.52 -646.685 1875.49 -670.561 1766.45 -657.583Z" stroke="#7776D1" stroke-width="0.6414" stroke-miterlimit="10" stroke-linecap="round" stroke-linejoin="round"/>
<path opacity="0.4146" d="M1765.2 -669.257C1525.7 -644.04 1530.66 -366.875 1408.56 -225.911C1348.02 -156.011 1201.23 -64.3867 1246.32 94.7748C1293.73 262.101 1384.49 377.725 1563.56 422.655C1804.89 483.209 1831.19 485.519 1980.5 526.57C2169.11 578.413 2222.59 347.765 2321.87 284.055C2470.05 188.956 2513.85 -19.844 2431.84 -196.868C2348.89 -375.903 2311.46 -441.253 2132.29 -558.711C2004.05 -643.053 1874.29 -680.754 1765.2 -669.257Z" stroke="#7776D1" stroke-width="0.6258" stroke-miterlimit="10" stroke-linecap="round" stroke-linejoin="round"/>
<path opacity="0.3902" d="M1763.95 -680.948C1519.99 -658.553 1530.92 -364.423 1407.38 -220.78C1346.43 -149.91 1195.54 -60.1546 1236.87 97.1554C1281.32 266.403 1385.4 378.871 1564.78 421.738C1809.67 480.264 1833.54 497.034 1983.02 537.891C2173.22 589.893 2224.02 352.526 2325.4 289.151C2477.65 193.982 2521.82 -20.3378 2441.36 -198.12C2359.22 -379.606 2309.98 -437.78 2129.03 -555.202C1999.57 -639.403 1873.11 -690.964 1763.95 -680.948Z" stroke="#7776D1" stroke-width="0.6102" stroke-miterlimit="10" stroke-linecap="round" stroke-linejoin="round"/>
<path opacity="0.3659" d="M1762.7 -692.621C1514.27 -673.119 1531.19 -361.955 1406.22 -215.631C1344.86 -143.809 1189.81 -55.9051 1227.43 99.5709C1268.85 270.758 1386.32 380.034 1565.98 420.856C1814.45 477.319 1835.93 508.266 1985.54 549.264C2177.43 601.037 2225.46 357.34 2328.94 294.317C2485.28 199.095 2529.82 -20.7436 2450.89 -199.284C2369.57 -383.239 2308.51 -434.218 2125.77 -551.605C1995.08 -635.753 1871.92 -701.191 1762.7 -692.621Z" stroke="#7776D1" stroke-width="0.5946" stroke-miterlimit="10" stroke-linecap="round" stroke-linejoin="round"/>
<path opacity="0.3415" d="M1761.45 -704.295C1508.55 -687.754 1531.45 -359.504 1405.04 -210.482C1343.28 -137.69 1183.98 -51.6376 1217.96 101.969C1256.26 275.096 1387.22 381.163 1567.18 419.957C1819.22 474.304 1838.24 519.799 1988.04 560.621C2181.5 612.552 2226.87 362.154 2332.45 299.448C2492.89 204.191 2537.79 -21.202 2460.39 -200.466C2379.91 -386.871 2307.01 -430.673 2122.49 -548.025C1990.6 -632.103 1870.74 -711.436 1761.45 -704.295Z" stroke="#7776D1" stroke-width="0.5791" stroke-miterlimit="10" stroke-linecap="round" stroke-linejoin="round"/>
<path opacity="0.3171" d="M1760.2 -715.968C1502.86 -702.443 1531.71 -357.035 1403.86 -205.35C1341.67 -131.589 1178.09 -47.3879 1208.51 104.367C1243.61 279.452 1388.14 382.256 1568.38 419.058C1823.98 471.253 1840.55 531.331 1990.55 571.959C2185.59 624.049 2228.28 366.95 2335.97 304.58C2500.51 209.288 2545.81 -21.6603 2469.91 -201.665C2390.28 -390.539 2305.55 -427.146 2119.21 -544.463C1986.1 -628.452 1869.56 -721.717 1760.2 -715.968Z" stroke="#7776D1" stroke-width="0.5635" stroke-miterlimit="10" stroke-linecap="round" stroke-linejoin="round"/>
<path opacity="0.2927" d="M1758.94 -727.642C1497.17 -717.22 1531.96 -354.584 1402.68 -200.201C1340.11 -125.47 1172.13 -43.1204 1199.07 106.766C1230.86 283.808 1389.05 383.332 1569.59 418.159C1828.78 468.168 1842.9 542.864 1993.07 583.315C2189.7 635.564 2229.71 371.764 2339.5 309.711C2508.12 214.402 2553.83 -22.1187 2479.43 -202.864C2400.68 -394.207 2304.05 -423.602 2115.95 -540.901C1981.63 -624.802 1868.4 -731.997 1758.94 -727.642Z" stroke="#7776D1" stroke-width="0.5479" stroke-miterlimit="10" stroke-linecap="round" stroke-linejoin="round"/>
<path opacity="0.2683" d="M1757.68 -739.315C1491.48 -732.05 1532.21 -352.133 1401.5 -195.052C1338.5 -119.368 1166.12 -38.8708 1189.6 109.181C1217.98 288.181 1389.95 384.39 1570.77 417.277C1833.54 465.046 1845.19 554.414 1995.55 594.689C2193.77 647.096 2231.12 376.614 2343.01 314.878C2515.74 219.568 2561.85 -22.542 2488.93 -204.028C2411.06 -397.857 2302.56 -420.04 2112.66 -537.304C1977.13 -621.17 1867.24 -742.313 1757.68 -739.315Z" stroke="#7776D1" stroke-width="0.5323" stroke-miterlimit="10" stroke-linecap="round" stroke-linejoin="round"/>
<path opacity="0.2439" d="M1756.42 -750.989C1485.82 -746.933 1532.45 -349.682 1400.3 -189.903C1336.9 -113.25 1160.02 -34.6387 1180.14 111.58C1205.02 292.536 1390.85 385.43 1571.97 416.377C1838.31 461.872 1847.5 565.929 1998.07 606.045C2197.86 658.629 2232.55 381.445 2346.53 320.01C2523.37 224.7 2569.9 -23.0181 2498.45 -205.244C2421.48 -401.542 2301.09 -416.531 2109.4 -533.76C1972.66 -617.519 1866.09 -752.629 1756.42 -750.989Z" stroke="#7776D1" stroke-width="0.5167" stroke-miterlimit="10" stroke-linecap="round" stroke-linejoin="round"/>
<path opacity="0.2195" d="M1755.17 -762.662C1480.18 -761.886 1532.7 -347.213 1399.13 -184.754C1335.31 -107.148 1153.89 -30.4067 1170.69 113.978C1191.96 296.856 1391.75 386.453 1573.17 415.478C1843.09 458.663 1849.8 577.461 2000.57 617.383C2201.95 670.126 2233.96 386.277 2350.06 325.141C2531 229.848 2577.96 -23.4766 2507.96 -206.426C2431.91 -405.21 2299.61 -412.987 2106.12 -530.18C1968.18 -613.869 1864.95 -762.979 1755.17 -762.662Z" stroke="#7776D1" stroke-width="0.5011" stroke-miterlimit="10" stroke-linecap="round" stroke-linejoin="round"/>
<path opacity="0.1951" d="M1753.92 -774.353C1474.54 -776.928 1532.95 -344.797 1397.95 -179.623C1333.73 -101.047 1147.7 -26.2275 1161.24 116.376C1178.78 301.177 1392.67 387.441 1574.39 414.579C1847.87 455.436 1852.13 588.993 2003.08 628.757C2206.04 681.658 2235.38 391.144 2353.56 330.29C2538.6 235.033 2586.01 -23.935 2517.46 -207.607C2442.36 -408.878 2298.11 -409.442 2102.84 -526.6C1963.68 -610.219 1863.82 -773.33 1753.92 -774.353Z" stroke="#7776D1" stroke-width="0.4855" stroke-miterlimit="10" stroke-linecap="round" stroke-linejoin="round"/>
<path opacity="0.1707" d="M1752.67 -786.027C1468.93 -792.004 1533.2 -342.346 1396.77 -174.474C1332.14 -94.9459 1141.45 -22.0483 1151.78 118.774C1165.49 305.479 1393.55 388.41 1575.57 413.679C1852.62 452.121 1854.44 600.526 2005.58 640.096C2210.13 693.155 2236.79 395.975 2357.09 335.404C2546.23 240.182 2594.1 -24.4112 2526.98 -208.824C2452.83 -412.581 2296.63 -405.933 2099.56 -523.038C1959.21 -606.569 1862.69 -783.699 1752.67 -786.027Z" stroke="#7776D1" stroke-width="0.4699" stroke-miterlimit="10" stroke-linecap="round" stroke-linejoin="round"/>
<path opacity="0.1463" d="M1751.42 -797.7C1463.34 -807.134 1533.14 -340.124 1395.59 -169.325C1330.39 -88.9504 1135.12 -17.9043 1142.31 121.172C1152.06 309.747 1394.41 389.38 1576.77 412.78C1857.38 448.806 1856.75 612.058 2008.08 651.452C2214.2 704.688 2238.2 400.825 2360.6 340.553C2553.84 245.384 2602.19 -24.8697 2536.48 -210.005C2463.3 -416.249 2295.13 -402.389 2096.28 -519.459C1954.71 -602.936 1861.58 -794.085 1751.42 -797.7Z" stroke="#7776D1" stroke-width="0.4543" stroke-miterlimit="10" stroke-linecap="round" stroke-linejoin="round"/>
<path opacity="0.122" d="M1750.17 -809.374C1457.77 -822.334 1533.42 -337.655 1394.41 -164.193C1328.83 -82.8314 1128.77 -13.8132 1132.86 123.571C1138.54 313.961 1395.29 390.315 1577.96 411.881C1862.13 445.438 1859.06 623.573 2010.6 662.808C2218.3 716.203 2239.63 405.692 2364.14 345.684C2561.49 250.568 2610.32 -25.328 2546.02 -211.204C2473.82 -419.952 2293.67 -398.862 2093.04 -515.896C1950.24 -599.286 1860.47 -804.471 1750.17 -809.374Z" stroke="#7776D1" stroke-width="0.4387" stroke-miterlimit="10" stroke-linecap="round" stroke-linejoin="round"/>
<path opacity="0.0976" d="M1748.9 -821.047C1452.22 -837.605 1533.69 -335.169 1393.21 -159.044C1327.22 -76.7126 1122.34 -9.75754 1123.4 125.969C1124.9 318.158 1396.16 391.25 1579.16 410.982C1866.87 442.017 1861.38 635.105 2013.11 674.146C2222.39 727.7 2241.06 410.541 2367.66 350.816C2569.13 255.77 2618.44 -25.8042 2555.54 -212.404C2484.35 -423.62 2292.19 -395.318 2089.76 -512.317C1945.76 -595.636 1859.38 -814.893 1748.9 -821.047Z" stroke="#7776D1" stroke-width="0.4232" stroke-miterlimit="10" stroke-linecap="round" stroke-linejoin="round"/>
<path opacity="0.0732" d="M1747.65 -832.721C1446.71 -852.911 1533.99 -332.683 1392.05 -153.895C1325.67 -70.5761 1115.91 -5.75486 1113.95 128.384C1111.13 322.302 1397.04 392.166 1580.36 410.1C1871.61 438.596 1863.69 646.655 2015.61 685.52C2226.48 739.232 2242.47 415.443 2371.17 355.982C2576.74 260.99 2626.55 -26.2451 2565.05 -213.585C2494.89 -427.305 2290.71 -391.773 2086.5 -508.755C1941.26 -591.986 1858.3 -825.297 1747.65 -832.721Z" stroke="#7776D1" stroke-width="0.4076" stroke-miterlimit="10" stroke-linecap="round" stroke-linejoin="round"/>
<path opacity="0.0488" d="M1746.4 -844.394C1441.21 -868.27 1534.27 -330.197 1390.87 -148.746C1324.08 -64.4573 1109.4 -1.80483 1104.5 130.783C1097.24 326.393 1397.88 393.066 1581.58 409.2C1876.37 435.122 1866.02 658.188 2018.13 696.876C2230.57 750.747 2243.9 420.31 2374.71 361.114C2584.39 266.227 2634.71 -26.7036 2574.57 -214.767C2505.44 -430.991 2289.23 -388.229 2083.22 -505.175C1936.79 -588.336 1857.23 -835.736 1746.4 -844.394Z" stroke="#7776D1" stroke-width="0.392" stroke-miterlimit="10" stroke-linecap="round" stroke-linejoin="round"/>
<path opacity="0.0244" d="M1745.14 -856.068C1435.73 -883.7 1534.55 -327.728 1389.69 -143.597C1322.52 -58.3384 1102.88 2.09218 1095.04 133.181C1083.25 330.413 1398.73 393.93 1582.76 408.301C1881.07 431.595 1868.33 669.72 2020.62 708.232C2234.64 762.262 2245.34 425.353 2378.2 366.245C2592.09 271.693 2643.1 -27.2502 2584.05 -215.966C2516.28 -434.782 2287.71 -384.702 2079.93 -501.613C1932.29 -584.703 1856.17 -846.157 1745.14 -856.068Z" stroke="#7776D1" stroke-width="0.3764" stroke-miterlimit="10" stroke-linecap="round" stroke-linejoin="round"/>
<path d="M1191.87 814.572C1092.67 728.431 880.544 1012.9 776.289 1069.96C639.055 1145.06 504.237 1032.05 417.888 1109.62C366.51 1155.77 300.343 1305.14 454.25 1496.15C559.563 1626.83 347.738 1799.36 515.799 1903.19C675.946 2002.13 756.759 1667.46 901.36 1713.08C1052.11 1760.62 1172.55 1695.07 1218.39 1619.76C1272.45 1530.94 1308.65 1446.61 1184.53 1290.75C1086.64 1167.81 1328.1 932.876 1191.87 814.572Z" stroke="#393878" stroke-miterlimit="10" stroke-linecap="round" stroke-linejoin="round"/>
<path opacity="0.9756" d="M775.037 1058.29C634.032 1131.8 504.518 1034.53 416.707 1114.77C364.941 1161.9 295.936 1308.23 444.803 1498.55C547.86 1630.32 348.179 1801.32 516.997 1902.29C680.246 1999.92 759.068 1678.99 903.863 1724.42C1056.2 1772.13 1173.59 1699.59 1221.9 1624.87C1279.59 1535.66 1316.22 1446.47 1194.03 1289.53C1096.63 1164.42 1326.6 936.42 1188.59 818.151C1088.19 732.081 879.857 1003.64 775.037 1058.29Z" stroke="#393878" stroke-width="0.9844" stroke-miterlimit="10" stroke-linecap="round" stroke-linejoin="round"/>
<path opacity="0.9512" d="M773.786 1046.6C628.938 1118.51 504.801 1037 415.544 1119.9C363.39 1168 291.53 1311.35 435.356 1500.94C536.174 1633.87 348.655 1803.22 518.196 1901.39C684.565 1997.7 761.377 1690.51 906.366 1735.77C1060.29 1783.65 1174.66 1704.14 1225.43 1630.02C1286.78 1540.44 1323.79 1446.35 1203.55 1288.35C1106.66 1161.04 1325.12 939.965 1185.31 821.731C1083.7 735.731 879.117 994.311 773.786 1046.6Z" stroke="#393878" stroke-width="0.9688" stroke-miterlimit="10" stroke-linecap="round" stroke-linejoin="round"/>
<path opacity="0.9268" d="M772.534 1034.92C623.774 1105.21 505.294 1039.7 414.363 1125.05C361.927 1174.26 287.088 1314.54 425.908 1503.34C524.506 1637.43 349.166 1805.11 519.412 1900.49C688.936 1995.46 763.704 1702.04 908.886 1747.13C1064.38 1795.16 1175.79 1708.69 1228.95 1635.15C1294.01 1545.19 1331.39 1446.17 1213.07 1287.15C1116.68 1157.62 1323.64 943.491 1182.05 825.293C1079.22 739.382 878.324 984.948 772.534 1034.92Z" stroke="#393878" stroke-width="0.9532" stroke-miterlimit="10" stroke-linecap="round" stroke-linejoin="round"/>
<path opacity="0.9024" d="M771.283 1023.25C618.557 1091.88 505.629 1042.24 413.182 1130.18C360.376 1180.4 282.594 1317.8 416.443 1505.74C512.803 1641.03 349.695 1806.94 520.593 1899.59C693.325 1993.21 766.013 1713.57 911.372 1758.48C1068.45 1806.68 1176.92 1713.24 1232.46 1640.3C1301.27 1549.95 1338.99 1446 1222.57 1285.97C1126.7 1154.18 1322.14 947.036 1178.75 828.873C1074.73 743.014 877.46 975.532 771.283 1023.25Z" stroke="#393878" stroke-width="0.9376" stroke-miterlimit="10" stroke-linecap="round" stroke-linejoin="round"/>
<path opacity="0.878" d="M770.031 1011.57C613.269 1078.51 505.981 1044.78 412.001 1135.33C358.842 1186.55 278.082 1321.13 406.996 1508.14C501.117 1644.68 350.294 1808.76 521.809 1898.69C697.766 1990.93 768.339 1725.1 913.91 1769.82C1072.58 1818.17 1178.12 1717.79 1236 1645.42C1308.58 1554.69 1346.64 1445.79 1232.11 1284.76C1136.77 1150.7 1320.67 950.545 1175.51 832.417C1070.25 746.664 876.579 966.08 770.031 1011.57Z" stroke="#393878" stroke-width="0.922" stroke-miterlimit="10" stroke-linecap="round" stroke-linejoin="round"/>
<path opacity="0.8537" d="M768.78 999.901C607.946 1065.13 506.316 1047.32 410.821 1140.48C357.291 1192.71 273.517 1324.52 397.531 1510.55C489.413 1648.38 350.893 1810.54 523.008 1897.81C702.208 1988.66 770.648 1736.65 916.413 1781.2C1076.67 1829.72 1179.32 1722.37 1239.53 1650.58C1315.9 1559.49 1354.29 1445.57 1241.62 1283.59C1146.82 1147.28 1319.19 954.107 1172.23 836.014C1065.77 750.315 875.644 956.558 768.78 999.901Z" stroke="#393878" stroke-width="0.9065" stroke-miterlimit="10" stroke-linecap="round" stroke-linejoin="round"/>
<path opacity="0.8293" d="M767.529 988.228C602.552 1051.69 506.651 1049.84 409.64 1145.63C355.74 1198.86 268.916 1327.96 388.083 1512.95C477.71 1652.1 351.545 1812.28 524.206 1896.89C706.702 1986.33 772.957 1748.17 918.915 1792.53C1080.74 1841.22 1180.55 1726.94 1243.05 1655.7C1323.27 1564.25 1361.95 1445.31 1251.14 1282.37C1156.88 1143.77 1317.71 957.616 1168.97 839.559C1061.28 753.965 874.675 947 767.529 988.228Z" stroke="#393878" stroke-width="0.8909" stroke-miterlimit="10" stroke-linecap="round" stroke-linejoin="round"/>
<path opacity="0.8049" d="M766.26 976.554C597.124 1038.22 506.951 1052.36 408.459 1150.77C354.189 1205 264.263 1331.48 378.618 1515.35C466.006 1655.86 352.215 1813.98 525.387 1896.01C711.179 1984 775.266 1759.72 921.401 1803.91C1084.81 1852.75 1181.78 1731.56 1246.54 1660.85C1330.62 1569.06 1369.62 1445.06 1260.62 1281.19C1166.93 1140.3 1316.2 961.16 1165.66 843.138C1056.8 757.615 873.67 937.39 766.26 976.554Z" stroke="#393878" stroke-width="0.8753" stroke-miterlimit="10" stroke-linecap="round" stroke-linejoin="round"/>
<path opacity="0.7805" d="M765.008 964.863C591.642 1024.68 507.286 1054.85 407.278 1155.91C352.621 1211.13 259.575 1335.03 369.171 1517.75C454.286 1659.66 352.92 1815.63 526.604 1895.09C715.727 1981.62 777.593 1771.22 923.921 1815.23C1088.91 1864.23 1183.07 1736.14 1250.08 1665.96C1338.05 1573.84 1377.34 1444.76 1270.16 1279.98C1177.03 1136.77 1314.73 964.669 1162.41 846.683C1052.31 761.247 872.63 927.727 765.008 964.863Z" stroke="#393878" stroke-width="0.8597" stroke-miterlimit="10" stroke-linecap="round" stroke-linejoin="round"/>
<path opacity="0.7561" d="M763.757 953.19C586.143 1011.12 507.603 1057.37 406.097 1161.06C351.07 1217.27 254.834 1338.66 359.706 1520.15C442.547 1663.49 353.625 1817.27 527.802 1894.21C720.292 1979.24 779.902 1782.77 926.442 1826.6C1093.02 1875.77 1184.38 1740.78 1253.61 1671.11C1345.49 1578.67 1385.06 1444.48 1279.68 1278.8C1187.13 1133.28 1313.25 968.231 1159.15 850.262C1047.83 764.898 871.573 918.028 763.757 953.19Z" stroke="#393878" stroke-width="0.8441" stroke-miterlimit="10" stroke-linecap="round" stroke-linejoin="round"/>
<path opacity="0.7317" d="M762.506 941.516C580.609 997.503 507.92 1059.87 404.916 1166.2C349.501 1223.41 250.057 1342.36 350.259 1522.56C430.791 1667.39 354.383 1818.88 529.001 1893.31C724.875 1976.81 782.229 1794.3 928.945 1837.96C1097.09 1887.3 1185.68 1745.42 1257.13 1676.26C1352.95 1583.52 1392.8 1444.18 1289.2 1277.61C1197.24 1129.77 1311.77 971.776 1155.88 853.842C1043.34 768.548 870.498 908.295 762.506 941.516Z" stroke="#393878" stroke-width="0.8285" stroke-miterlimit="10" stroke-linecap="round" stroke-linejoin="round"/>
<path opacity="0.7073" d="M761.254 929.843C575.021 983.819 508.22 1062.38 403.735 1171.34C347.932 1229.53 245.21 1346.1 340.794 1524.94C419.016 1671.3 355.159 1820.43 530.181 1892.39C729.457 1974.34 784.432 1806.11 931.43 1849.3C1101.06 1899.13 1186.98 1750.04 1260.62 1681.39C1360.39 1588.37 1400.52 1443.85 1298.68 1276.41C1207.32 1126.23 1310.28 975.302 1152.58 857.404C1038.86 772.198 869.387 898.508 761.254 929.843Z" stroke="#393878" stroke-width="0.8129" stroke-miterlimit="10" stroke-linecap="round" stroke-linejoin="round"/>
<path opacity="0.6829" d="M760.003 918.169C569.434 970.1 508.537 1064.88 402.554 1176.48C346.364 1235.66 240.31 1349.89 331.347 1527.34C407.225 1675.25 355.952 1821.95 531.398 1891.49C734.093 1971.85 786.758 1817.64 933.95 1860.64C1105.17 1910.64 1188.34 1754.69 1264.17 1686.5C1367.89 1593.22 1408.31 1443.49 1308.21 1275.2C1217.48 1122.65 1308.81 978.811 1149.32 860.966C1034.38 775.848 868.259 888.668 760.003 918.169Z" stroke="#393878" stroke-width="0.7973" stroke-miterlimit="10" stroke-linecap="round" stroke-linejoin="round"/>
<path opacity="0.6585" d="M758.751 906.496C563.794 956.311 508.837 1067.37 401.391 1181.63C344.812 1241.8 235.357 1353.76 321.899 1529.76C395.416 1679.27 356.763 1823.46 532.596 1890.61C738.746 1969.35 789.067 1829.2 936.453 1872.01C1109.25 1922.19 1189.68 1759.38 1267.67 1691.65C1375.38 1598.12 1416.08 1443.16 1317.71 1274.02C1227.61 1119.11 1307.31 982.356 1146.04 864.545C1029.89 779.481 867.114 878.793 758.751 906.496Z" stroke="#393878" stroke-width="0.7817" stroke-miterlimit="10" stroke-linecap="round" stroke-linejoin="round"/>
<path opacity="0.6341" d="M757.482 894.822C558.136 942.469 509.119 1069.85 400.192 1186.78C343.226 1247.92 230.334 1357.65 312.434 1532.16C383.554 1683.29 357.591 1824.93 533.795 1889.73C743.399 1966.81 791.376 1840.75 938.973 1883.38C1113.34 1933.75 1191.06 1764.09 1271.22 1696.82C1382.93 1603.06 1423.91 1442.82 1327.25 1272.85C1237.78 1115.56 1305.83 985.9 1142.76 868.125C1025.41 783.131 865.968 868.901 757.482 894.822Z" stroke="#393878" stroke-width="0.7661" stroke-miterlimit="10" stroke-linecap="round" stroke-linejoin="round"/>
<path opacity="0.6098" d="M756.231 883.149C552.46 928.556 509.419 1072.34 399.011 1191.93C341.658 1254.06 225.24 1361.62 302.969 1534.57C371.639 1687.39 358.42 1826.36 534.976 1888.83C748.052 1964.23 793.685 1852.3 941.459 1894.74C1117.42 1945.28 1192.41 1768.8 1274.71 1701.95C1390.42 1607.98 1431.7 1442.44 1336.73 1271.65C1247.93 1111.98 1304.34 989.445 1139.48 871.705C1020.92 786.781 864.805 858.956 756.231 883.149Z" stroke="#393878" stroke-width="0.7506" stroke-miterlimit="10" stroke-linecap="round" stroke-linejoin="round"/>
<path opacity="0.5854" d="M754.979 871.458C546.767 914.572 509.701 1074.81 397.831 1197.06C340.089 1260.16 220.111 1365.61 293.522 1536.95C359.724 1691.48 359.283 1827.73 536.192 1887.91C752.759 1961.59 796.012 1863.81 943.979 1906.06C1121.5 1956.76 1193.81 1773.47 1278.25 1707.06C1398 1612.88 1439.56 1442.03 1346.27 1270.44C1258.16 1108.37 1302.87 992.954 1136.22 875.249C1016.44 790.431 863.624 848.975 754.979 871.458Z" stroke="#393878" stroke-width="0.735" stroke-miterlimit="10" stroke-linecap="round" stroke-linejoin="round"/>
<path opacity="0.561" d="M753.728 859.784C541.074 900.536 510 1077.3 396.65 1202.21C338.503 1266.28 214.894 1369.66 284.057 1539.37C347.738 1695.64 360.129 1829.12 537.373 1887.03C757.447 1958.94 798.303 1875.36 946.464 1917.43C1125.58 1968.31 1195.18 1778.2 1281.74 1712.21C1405.52 1617.86 1447.39 1441.66 1355.75 1269.26C1268.33 1104.79 1301.36 996.498 1132.93 878.829C1011.96 794.081 862.443 838.959 753.728 859.784Z" stroke="#393878" stroke-width="0.7194" stroke-miterlimit="10" stroke-linecap="round" stroke-linejoin="round"/>
<path opacity="0.5366" d="M752.476 848.111C535.363 886.446 510.282 1079.78 395.469 1207.36C336.934 1272.41 209.624 1373.73 274.609 1541.77C335.735 1699.8 361.01 1830.46 538.589 1886.13C762.188 1956.25 800.63 1886.87 948.985 1928.79C1129.68 1979.82 1196.57 1782.94 1285.28 1717.36C1413.12 1622.85 1455.28 1441.27 1365.29 1268.07C1278.57 1101.19 1299.89 1000.04 1129.67 882.408C1007.47 797.714 861.262 828.908 752.476 848.111Z" stroke="#393878" stroke-width="0.7038" stroke-miterlimit="10" stroke-linecap="round" stroke-linejoin="round"/>
<path opacity="0.5122" d="M751.225 836.437C529.635 872.287 510.564 1082.25 394.305 1212.49C335.365 1278.51 204.301 1377.84 265.162 1544.15C323.662 1703.98 361.909 1831.75 539.787 1885.22C766.912 1953.49 802.956 1898.39 951.505 1940.13C1133.79 1991.34 1197.98 1787.67 1288.81 1722.48C1420.7 1627.82 1463.16 1440.83 1374.8 1266.86C1288.81 1097.56 1298.41 1003.57 1126.4 885.953C1002.99 801.364 860.063 818.839 751.225 836.437Z" stroke="#393878" stroke-width="0.6882" stroke-miterlimit="10" stroke-linecap="round" stroke-linejoin="round"/>
<path opacity="0.4878" d="M749.974 824.764C523.924 858.056 510.846 1084.74 393.124 1217.64C333.796 1284.63 198.89 1382.01 255.715 1546.56C311.535 1708.25 362.808 1833.04 541.004 1884.34C771.671 1950.74 805.283 1909.94 954.026 1951.48C1137.9 2002.85 1199.41 1792.43 1292.35 1727.61C1428.3 1632.81 1471.09 1440.41 1384.34 1265.66C1299.08 1093.94 1296.95 1007.1 1123.14 889.515C998.495 805.014 858.865 808.735 749.974 824.764Z" stroke="#393878" stroke-width="0.6726" stroke-miterlimit="10" stroke-linecap="round" stroke-linejoin="round"/>
<path opacity="0.4634" d="M748.704 813.09C518.178 843.755 511.111 1087.21 391.926 1222.79C332.192 1290.75 193.39 1386.18 246.232 1548.96C299.321 1712.5 363.672 1834.29 542.185 1883.44C776.394 1947.92 807.574 1921.45 956.511 1962.84C1141.95 2014.37 1200.78 1797.19 1295.86 1732.76C1435.88 1637.85 1479.01 1439.98 1393.84 1264.48C1309.34 1090.33 1295.45 1010.64 1119.87 893.112C994.018 808.664 857.684 798.595 748.704 813.09Z" stroke="#393878" stroke-width="0.657" stroke-miterlimit="10" stroke-linecap="round" stroke-linejoin="round"/>
<path opacity="0.439" d="M747.453 801.417C512.45 829.384 511.375 1089.67 390.745 1227.94C330.606 1296.87 187.838 1390.38 236.785 1551.38C287.071 1716.8 364.589 1835.53 543.383 1882.55C781.153 1945.1 809.901 1933 959.014 1974.21C1146.04 2025.9 1202.2 1801.99 1299.37 1737.91C1443.46 1642.9 1486.92 1439.58 1403.34 1263.31C1319.62 1086.73 1293.95 1014.2 1116.59 896.709C989.524 812.315 856.485 788.439 747.453 801.417Z" stroke="#393878" stroke-width="0.6414" stroke-miterlimit="10" stroke-linecap="round" stroke-linejoin="round"/>
<path opacity="0.4146" d="M746.202 789.743C506.704 814.96 511.657 1092.13 389.564 1233.09C329.02 1302.99 182.233 1394.61 227.32 1553.77C274.733 1721.1 365.487 1836.72 544.564 1881.66C785.895 1942.21 812.192 1944.52 961.499 1985.57C1150.11 2037.41 1203.59 1806.76 1302.87 1743.05C1451.05 1647.96 1494.85 1439.16 1412.84 1262.13C1329.89 1083.1 1292.46 1017.75 1113.29 900.289C985.047 815.947 855.287 778.246 746.202 789.743Z" stroke="#393878" stroke-width="0.6258" stroke-miterlimit="10" stroke-linecap="round" stroke-linejoin="round"/>
<path opacity="0.3902" d="M744.95 778.052C500.994 800.447 511.921 1094.58 388.383 1238.22C327.434 1309.09 176.54 1398.85 217.872 1556.16C262.324 1725.4 366.404 1837.87 545.78 1880.74C790.671 1939.26 814.536 1956.03 964.02 1996.89C1154.22 2048.89 1205.02 1811.53 1306.4 1748.15C1458.65 1652.98 1502.82 1438.66 1422.36 1260.88C1340.22 1079.39 1290.98 1021.22 1110.03 903.798C980.57 819.597 854.106 768.036 744.95 778.052Z" stroke="#393878" stroke-width="0.6102" stroke-miterlimit="10" stroke-linecap="round" stroke-linejoin="round"/>
<path opacity="0.3659" d="M743.699 766.379C495.265 785.882 512.186 1097.05 387.22 1243.37C325.865 1315.19 170.812 1403.09 208.425 1558.57C249.845 1729.76 367.32 1839.03 546.979 1879.86C795.448 1936.32 816.933 1967.27 966.54 2008.26C1158.43 2060.04 1206.46 1816.34 1309.94 1753.32C1466.28 1658.1 1510.82 1438.26 1431.89 1259.72C1350.57 1075.76 1289.51 1024.78 1106.77 907.395C976.075 823.247 852.925 757.809 743.699 766.379Z" stroke="#393878" stroke-width="0.5946" stroke-miterlimit="10" stroke-linecap="round" stroke-linejoin="round"/>
<path opacity="0.3415" d="M742.447 754.705C489.554 771.246 512.45 1099.5 386.039 1248.52C324.279 1321.31 164.978 1407.36 198.96 1560.97C237.261 1734.1 368.219 1840.16 548.177 1878.96C800.224 1933.3 819.242 1978.8 969.043 2019.62C1162.5 2071.55 1207.87 1821.15 1313.45 1758.45C1473.89 1663.19 1518.79 1437.8 1441.39 1258.53C1360.91 1072.13 1288.01 1028.33 1103.49 910.975C971.599 826.897 851.744 747.564 742.447 754.705Z" stroke="#393878" stroke-width="0.5791" stroke-miterlimit="10" stroke-linecap="round" stroke-linejoin="round"/>
<path opacity="0.3171" d="M741.196 743.032C483.861 756.557 512.715 1101.97 384.858 1253.65C322.675 1327.41 159.091 1411.61 189.513 1563.37C224.605 1738.45 369.136 1841.26 549.376 1878.06C804.983 1930.25 821.551 1990.33 971.546 2030.96C1166.59 2083.05 1209.28 1825.95 1316.97 1763.58C1481.51 1668.29 1526.81 1437.34 1450.91 1257.34C1371.28 1068.46 1286.55 1031.85 1100.21 914.537C967.104 830.548 850.563 737.283 741.196 743.032Z" stroke="#393878" stroke-width="0.5635" stroke-miterlimit="10" stroke-linecap="round" stroke-linejoin="round"/>
<path opacity="0.2927" d="M739.945 731.358C478.168 741.78 512.961 1104.42 383.677 1258.8C321.106 1333.53 153.134 1415.88 180.066 1565.77C211.862 1742.81 370.052 1842.33 550.592 1877.16C809.777 1927.17 823.896 2001.86 974.066 2042.32C1170.7 2094.56 1210.71 1830.76 1320.5 1768.71C1489.12 1673.4 1534.83 1436.88 1460.43 1256.14C1381.68 1064.79 1285.05 1035.4 1096.95 918.099C962.627 834.198 849.4 727.003 739.945 731.358Z" stroke="#393878" stroke-width="0.5479" stroke-miterlimit="10" stroke-linecap="round" stroke-linejoin="round"/>
<path opacity="0.2683" d="M738.675 719.685C472.475 726.95 513.208 1106.87 382.496 1263.95C319.502 1339.63 147.123 1420.13 170.6 1568.18C198.978 1747.18 370.951 1843.39 551.773 1876.28C814.536 1924.05 826.187 2013.41 976.551 2053.69C1174.77 2106.1 1212.12 1835.61 1324.01 1773.88C1496.74 1678.57 1542.85 1436.46 1469.93 1254.97C1392.06 1061.14 1283.56 1038.96 1093.66 921.696C958.132 837.83 848.236 716.687 738.675 719.685Z" stroke="#393878" stroke-width="0.5323" stroke-miterlimit="10" stroke-linecap="round" stroke-linejoin="round"/>
<path opacity="0.2439" d="M737.424 708.011C466.817 712.067 513.455 1109.32 381.298 1269.1C317.898 1345.75 141.025 1424.36 161.135 1570.58C186.023 1751.54 371.85 1844.43 552.971 1875.38C819.313 1920.87 828.496 2024.93 979.072 2065.05C1178.86 2117.63 1213.55 1840.45 1327.53 1779.01C1504.37 1683.7 1550.9 1435.98 1479.45 1253.76C1402.48 1057.46 1282.09 1042.47 1090.4 925.24C953.656 841.481 847.091 706.371 737.424 708.011Z" stroke="#393878" stroke-width="0.5167" stroke-miterlimit="10" stroke-linecap="round" stroke-linejoin="round"/>
<path opacity="0.2195" d="M736.173 696.338C461.177 697.114 513.702 1111.79 380.134 1274.25C316.312 1351.85 134.891 1428.59 151.688 1572.98C172.962 1755.86 372.749 1845.45 554.17 1874.48C824.089 1917.66 830.805 2036.46 981.575 2076.38C1182.95 2129.13 1214.96 1845.28 1331.06 1784.14C1512 1688.85 1558.96 1435.52 1488.96 1252.57C1412.91 1053.79 1280.61 1046.01 1087.12 928.82C949.179 845.131 845.945 696.021 736.173 696.338Z" stroke="#393878" stroke-width="0.5011" stroke-miterlimit="10" stroke-linecap="round" stroke-linejoin="round"/>
<path opacity="0.1951" d="M734.921 684.647C455.537 682.072 513.948 1114.2 378.953 1279.38C314.726 1357.95 128.704 1432.77 142.241 1575.38C159.778 1760.18 373.666 1846.44 555.386 1873.58C828.866 1914.44 833.131 2047.99 984.078 2087.76C1187.04 2140.66 1216.38 1850.14 1334.56 1789.29C1519.6 1694.03 1567.01 1435.06 1498.46 1251.39C1423.36 1050.12 1279.11 1049.56 1083.84 932.4C944.684 848.781 844.817 685.67 734.921 684.647Z" stroke="#393878" stroke-width="0.4855" stroke-miterlimit="10" stroke-linecap="round" stroke-linejoin="round"/>
<path opacity="0.1707" d="M733.67 672.973C449.932 666.996 514.195 1116.65 377.773 1284.53C313.139 1364.05 122.447 1436.95 132.776 1577.77C146.489 1764.48 374.547 1847.41 556.567 1872.68C833.625 1911.12 835.44 2059.53 986.58 2099.1C1191.13 2152.16 1217.79 1854.98 1338.09 1794.4C1527.23 1699.18 1575.1 1434.59 1507.98 1250.18C1433.83 1046.42 1277.63 1053.07 1080.56 935.962C940.207 852.431 843.689 675.301 733.67 672.973Z" stroke="#393878" stroke-width="0.4699" stroke-miterlimit="10" stroke-linecap="round" stroke-linejoin="round"/>
<path opacity="0.1463" d="M732.418 661.3C444.345 651.866 514.142 1118.88 376.592 1289.68C311.394 1370.05 116.12 1441.1 123.311 1580.17C133.058 1768.75 375.411 1848.38 557.766 1871.78C838.384 1907.81 837.749 2071.06 989.083 2110.45C1195.2 2163.69 1219.2 1859.82 1341.6 1799.55C1534.84 1704.38 1583.19 1434.13 1517.48 1248.99C1444.3 1042.75 1276.13 1056.61 1077.28 939.541C935.713 856.064 842.579 664.915 732.418 661.3Z" stroke="#393878" stroke-width="0.4543" stroke-miterlimit="10" stroke-linecap="round" stroke-linejoin="round"/>
<path opacity="0.122" d="M731.167 649.626C438.775 636.666 514.424 1121.34 375.411 1294.81C309.826 1376.17 109.774 1445.19 113.864 1582.57C119.539 1772.96 376.292 1849.32 558.964 1870.88C843.125 1904.44 840.058 2082.57 991.604 2121.81C1199.3 2175.2 1220.63 1864.69 1345.14 1804.68C1542.49 1709.57 1591.32 1433.67 1527.02 1247.8C1454.82 1039.05 1274.67 1060.14 1074.04 943.103C931.236 859.714 841.468 654.529 731.167 649.626Z" stroke="#393878" stroke-width="0.4387" stroke-miterlimit="10" stroke-linecap="round" stroke-linejoin="round"/>
<path opacity="0.0976" d="M729.898 637.953C433.223 621.395 514.689 1123.83 374.212 1299.96C308.222 1382.29 103.341 1449.24 104.399 1584.97C105.897 1777.16 377.156 1850.25 560.163 1869.98C847.867 1901.02 842.385 2094.11 994.107 2133.15C1203.39 2186.7 1222.06 1869.54 1348.66 1809.82C1550.13 1714.77 1599.44 1433.2 1536.54 1246.6C1465.35 1035.38 1273.19 1063.68 1070.76 946.683C926.759 863.364 840.376 644.107 729.898 637.953Z" stroke="#393878" stroke-width="0.4232" stroke-miterlimit="10" stroke-linecap="round" stroke-linejoin="round"/>
<path opacity="0.0732" d="M728.646 626.279C427.706 606.089 514.988 1126.32 373.049 1305.1C306.671 1388.42 96.9076 1453.25 94.9511 1587.38C92.131 1781.3 378.037 1851.17 561.361 1869.1C852.608 1897.6 844.694 2105.66 996.609 2144.52C1207.48 2198.23 1223.47 1874.44 1352.17 1814.98C1557.74 1719.99 1607.55 1432.75 1546.05 1245.41C1475.89 1031.69 1271.71 1067.23 1067.5 950.245C922.264 867.014 839.3 633.703 728.646 626.279Z" stroke="#393878" stroke-width="0.4076" stroke-miterlimit="10" stroke-linecap="round" stroke-linejoin="round"/>
<path opacity="0.0488" d="M727.395 614.606C422.207 590.73 515.27 1128.8 371.868 1310.25C305.084 1394.54 90.4038 1457.2 85.5039 1589.78C78.2421 1785.39 378.883 1852.07 562.578 1868.2C857.367 1894.12 847.021 2117.19 999.13 2155.88C1211.57 2209.75 1224.9 1879.31 1355.71 1820.11C1565.39 1725.23 1615.71 1432.3 1555.57 1244.23C1486.44 1028.01 1270.23 1070.77 1064.22 953.825C917.788 870.664 838.225 623.264 727.395 614.606Z" stroke="#393878" stroke-width="0.392" stroke-miterlimit="10" stroke-linecap="round" stroke-linejoin="round"/>
<path opacity="0.0244" d="M726.144 602.932C416.725 575.3 515.552 1131.27 370.687 1315.4C303.516 1400.66 83.8823 1461.09 76.0389 1592.18C64.2473 1789.41 379.729 1852.93 563.759 1867.3C862.073 1890.6 849.329 2128.72 1001.62 2167.23C1215.64 2221.26 1226.34 1884.35 1359.2 1825.24C1573.09 1730.69 1624.1 1431.75 1565.05 1243.03C1497.28 1024.22 1268.71 1074.3 1060.93 957.387C913.293 874.297 837.168 612.842 726.144 602.932Z" stroke="#393878" stroke-width="0.3764" stroke-miterlimit="10" stroke-linecap="round" stroke-linejoin="round"/>
<path opacity="0.9512" d="M-510.214 -23.4047C-655.062 48.5053 -779.2 -32.9974 -868.456 49.8984C-920.61 98.003 -992.47 241.347 -848.645 430.944C-747.826 563.867 -935.345 733.22 -765.804 831.387C-599.436 927.702 -522.623 620.506 -377.634 665.772C-223.709 713.647 -109.336 634.137 -58.5745 560.023C2.78042 470.444 39.7944 376.35 -80.4479 218.353C-177.336 91.0378 41.1162 -130.035 -98.6905 -248.269C-200.302 -334.269 -404.883 -75.6885 -510.214 -23.4047Z" stroke="#7776D1" stroke-width="0.9688" stroke-miterlimit="10" stroke-linecap="round" stroke-linejoin="round"/>
<path opacity="0.9268" d="M-511.466 -35.0782C-660.226 35.2096 -778.706 -30.2995 -869.637 55.0475C-922.073 104.263 -996.912 244.539 -858.092 433.342C-759.494 567.429 -934.834 735.107 -764.588 830.488C-595.064 925.463 -520.296 632.039 -375.114 677.128C-219.62 725.162 -108.208 638.686 -55.0495 565.154C10.0068 475.187 47.3908 376.174 -70.9302 217.154C-167.325 87.6169 39.6356 -126.509 -101.951 -244.707C-204.779 -330.618 -405.677 -85.052 -511.466 -35.0782Z" stroke="#7776D1" stroke-width="0.9532" stroke-miterlimit="10" stroke-linecap="round" stroke-linejoin="round"/>
<path opacity="0.9024" d="M-512.717 -46.7516C-665.443 21.8786 -778.371 -27.7601 -870.818 60.179C-923.624 110.4 -1001.41 247.801 -867.557 435.741C-771.197 571.026 -934.305 736.941 -763.407 829.589C-590.675 923.206 -517.987 643.571 -372.628 688.484C-215.548 736.677 -107.08 643.236 -51.5416 570.303C17.2689 479.948 54.9879 375.998 -61.4296 215.972C-157.296 84.1783 38.1378 -122.964 -105.247 -241.127C-209.274 -326.986 -406.54 -94.4683 -512.717 -46.7516Z" stroke="#7776D1" stroke-width="0.9376" stroke-miterlimit="10" stroke-linecap="round" stroke-linejoin="round"/>
<path opacity="0.878" d="M-513.968 -58.4252C-670.731 8.51217 -778.018 -25.221 -871.998 65.3278C-925.157 116.554 -1005.92 251.134 -877.004 438.139C-782.883 574.676 -933.706 738.757 -762.19 828.689C-586.234 920.931 -515.66 655.103 -370.09 699.822C-211.424 748.174 -105.881 647.785 -47.9988 575.417C24.5837 484.692 62.6375 375.786 -51.894 214.755C-147.231 80.7044 36.6749 -119.455 -108.49 -237.583C-213.751 -323.336 -407.421 -103.92 -513.968 -58.4252Z" stroke="#7776D1" stroke-width="0.922" stroke-miterlimit="10" stroke-linecap="round" stroke-linejoin="round"/>
<path opacity="0.8537" d="M-515.22 -70.0986C-676.054 -4.87166 -777.684 -22.6816 -873.179 70.477C-926.709 122.708 -1010.48 254.519 -886.469 440.555C-794.587 578.379 -933.107 740.538 -760.992 827.807C-581.792 918.656 -513.352 666.653 -367.587 711.196C-207.335 759.724 -104.683 652.37 -44.4739 580.583C31.8981 489.488 70.2868 375.575 -42.3764 213.592C-137.185 77.2836 35.194 -115.893 -111.769 -233.986C-218.228 -319.685 -408.356 -113.442 -515.22 -70.0986Z" stroke="#7776D1" stroke-width="0.9065" stroke-miterlimit="10" stroke-linecap="round" stroke-linejoin="round"/>
<path opacity="0.8293" d="M-516.471 -81.7721C-681.448 -18.3086 -777.349 -20.1601 -874.36 75.6259C-928.26 128.862 -1015.08 257.958 -895.917 442.953C-806.29 582.1 -932.455 742.284 -759.794 826.89C-577.298 916.328 -511.043 678.168 -365.085 722.534C-203.263 771.221 -103.449 656.937 -40.9488 585.697C39.2656 494.249 77.9539 375.31 -32.8586 212.375C-127.121 73.7744 33.7135 -112.384 -115.029 -230.441C-222.722 -316.035 -409.325 -123 -516.471 -81.7721Z" stroke="#7776D1" stroke-width="0.8909" stroke-miterlimit="10" stroke-linecap="round" stroke-linejoin="round"/>
<path opacity="0.8049" d="M-517.74 -93.4457C-686.876 -31.7807 -777.049 -17.6385 -875.541 80.7749C-929.811 134.998 -1019.74 261.485 -905.381 445.351C-817.993 585.856 -931.785 743.977 -758.613 826.009C-572.82 914.001 -508.734 689.718 -362.599 733.908C-199.192 782.753 -102.215 661.557 -37.4587 590.846C46.6157 499.063 85.6213 375.063 -23.3757 211.193C-117.074 70.3005 32.1979 -108.84 -118.343 -226.862C-227.199 -312.385 -410.329 -132.61 -517.74 -93.4457Z" stroke="#7776D1" stroke-width="0.8753" stroke-miterlimit="10" stroke-linecap="round" stroke-linejoin="round"/>
<path opacity="0.7805" d="M-518.992 -105.137C-692.358 -45.3233 -776.714 -15.1521 -876.722 85.9064C-931.379 141.135 -1024.43 265.029 -914.829 447.749C-829.714 589.665 -931.08 745.634 -757.396 825.092C-568.273 911.62 -506.407 701.215 -360.079 745.229C-195.085 794.233 -100.929 666.142 -33.916 595.96C54.0536 503.842 93.3413 374.763 -13.8404 209.977C-106.974 66.7739 30.7349 -105.331 -121.586 -223.317C-231.694 -308.753 -411.37 -142.273 -518.992 -105.137Z" stroke="#7776D1" stroke-width="0.8597" stroke-miterlimit="10" stroke-linecap="round" stroke-linejoin="round"/>
<path opacity="0.7561" d="M-520.243 -116.81C-697.857 -58.8835 -776.397 -12.6305 -877.903 91.0555C-932.931 147.272 -1029.17 268.662 -924.294 450.147C-841.453 593.491 -930.375 747.275 -756.198 824.21C-563.708 909.24 -504.098 712.766 -357.559 756.603C-190.978 805.766 -99.6246 670.78 -30.391 601.109C61.4916 508.674 101.061 374.481 -4.32259 208.795C-96.8749 63.2825 29.2543 -101.769 -124.847 -219.738C-236.171 -305.102 -412.427 -151.972 -520.243 -116.81Z" stroke="#7776D1" stroke-width="0.8441" stroke-miterlimit="10" stroke-linecap="round" stroke-linejoin="round"/>
<path opacity="0.7317" d="M-521.494 -128.484C-703.391 -72.4968 -776.08 -10.1265 -879.084 96.2045C-934.499 153.408 -1033.94 272.365 -933.741 452.563C-853.209 597.389 -929.617 748.879 -754.999 823.311C-559.125 906.806 -501.771 724.298 -355.055 767.959C-186.907 817.298 -98.32 675.417 -26.8655 606.258C68.9475 513.523 108.799 374.182 5.19554 207.614C-86.7575 59.7733 27.774 -98.2243 -128.125 -216.158C-240.665 -301.452 -413.502 -161.705 -521.494 -128.484Z" stroke="#7776D1" stroke-width="0.8285" stroke-miterlimit="10" stroke-linecap="round" stroke-linejoin="round"/>
<path opacity="0.7073" d="M-522.746 -140.157C-708.979 -86.1806 -775.78 -7.6226 -880.265 101.336C-936.068 159.527 -1038.79 276.103 -943.206 454.944C-864.984 601.303 -928.841 750.431 -753.819 822.394C-554.543 904.337 -499.568 736.112 -352.57 779.297C-182.941 829.13 -97.0159 680.037 -23.3759 611.389C76.3853 518.372 116.519 373.846 14.6778 206.415C-76.676 56.2289 26.2755 -94.6976 -131.421 -212.596C-245.142 -297.802 -414.613 -171.492 -522.746 -140.157Z" stroke="#7776D1" stroke-width="0.8129" stroke-miterlimit="10" stroke-linecap="round" stroke-linejoin="round"/>
<path opacity="0.6829" d="M-523.998 -151.831C-714.566 -99.8996 -775.463 -5.11864 -881.446 106.485C-937.637 165.663 -1043.69 279.894 -952.654 457.342C-876.775 605.253 -928.048 751.947 -752.602 821.494C-549.907 901.851 -497.242 747.645 -350.05 790.636C-178.834 840.645 -95.659 684.693 -19.8334 616.503C83.8936 523.221 124.309 373.494 24.2132 205.198C-66.5237 52.6492 24.8124 -91.1885 -134.682 -209.034C-249.619 -294.152 -415.741 -181.332 -523.998 -151.831Z" stroke="#7776D1" stroke-width="0.7973" stroke-miterlimit="10" stroke-linecap="round" stroke-linejoin="round"/>
<path opacity="0.6585" d="M-525.249 -163.504C-720.206 -113.689 -775.163 -2.63214 -882.609 111.634C-939.188 171.8 -1048.64 283.756 -962.101 459.758C-888.584 609.274 -927.237 753.464 -751.404 820.613C-545.254 899.347 -494.933 759.195 -347.547 802.01C-174.745 852.195 -94.3192 689.383 -16.3257 621.652C91.3847 528.123 132.082 373.159 33.7135 204.017C-56.3889 49.105 23.3144 -87.644 -137.96 -205.455C-254.113 -290.519 -416.886 -191.207 -525.249 -163.504Z" stroke="#7776D1" stroke-width="0.7817" stroke-miterlimit="10" stroke-linecap="round" stroke-linejoin="round"/>
<path opacity="0.6341" d="M-526.518 -175.178C-725.864 -127.531 -774.881 -0.145836 -883.808 116.783C-940.774 177.919 -1053.67 287.653 -971.566 462.156C-900.446 613.294 -926.409 754.928 -750.205 819.731C-540.601 896.808 -492.624 770.745 -345.027 813.383C-170.656 863.745 -92.9444 694.092 -12.7829 626.819C98.9285 533.061 139.908 372.824 43.2491 202.853C-46.2187 45.5607 21.834 -84.0997 -141.239 -201.875C-258.59 -286.869 -418.032 -201.099 -526.518 -175.178Z" stroke="#7776D1" stroke-width="0.7661" stroke-miterlimit="10" stroke-linecap="round" stroke-linejoin="round"/>
<path opacity="0.6098" d="M-527.77 -186.851C-731.54 -141.444 -774.582 2.34051 -884.989 121.932C-942.343 184.055 -1058.76 291.621 -981.031 464.572C-912.361 617.385 -925.581 756.356 -749.024 818.832C-535.948 894.234 -490.315 782.295 -342.542 824.739C-166.585 875.277 -91.5874 698.8 -9.29319 631.95C106.419 537.981 147.699 372.436 52.7315 201.654C-36.0666 41.981 20.3355 -80.5553 -144.517 -198.295C-263.085 -283.219 -419.196 -211.044 -527.77 -186.851Z" stroke="#7776D1" stroke-width="0.7506" stroke-miterlimit="10" stroke-linecap="round" stroke-linejoin="round"/>
<path opacity="0.5854" d="M-529.021 -198.542C-737.233 -155.428 -774.299 4.80909 -886.169 127.063C-943.911 190.157 -1063.89 295.606 -990.478 466.952C-924.276 621.476 -924.717 757.731 -747.808 817.915C-531.241 891.588 -487.988 793.81 -340.021 836.06C-162.495 886.757 -90.1946 703.472 -5.75004 637.064C113.999 542.883 155.56 372.03 62.2673 200.437C-25.8434 38.3659 18.873 -77.0463 -147.778 -194.751C-267.562 -279.569 -420.376 -221.025 -529.021 -198.542Z" stroke="#7776D1" stroke-width="0.735" stroke-miterlimit="10" stroke-linecap="round" stroke-linejoin="round"/>
<path opacity="0.561" d="M-530.272 -210.216C-742.926 -169.464 -774 7.29549 -887.351 132.212C-945.498 196.275 -1069.11 299.662 -999.943 469.368C-936.262 625.637 -923.871 759.124 -746.627 817.033C-526.553 888.943 -485.697 805.36 -337.536 847.434C-158.424 898.307 -88.8201 708.198 -2.26045 642.213C121.525 547.855 163.385 371.66 71.7497 199.256C-15.6736 34.7864 17.3569 -73.5019 -151.074 -191.171C-272.039 -275.919 -421.557 -231.041 -530.272 -210.216Z" stroke="#7776D1" stroke-width="0.7194" stroke-miterlimit="10" stroke-linecap="round" stroke-linejoin="round"/>
<path opacity="0.5366" d="M-531.524 -221.889C-748.636 -183.554 -773.718 9.78192 -888.531 137.361C-947.066 202.412 -1074.38 303.735 -1009.39 471.766C-948.265 629.799 -922.989 760.465 -745.411 816.134C-521.812 886.245 -483.37 816.875 -335.015 858.79C-154.317 909.822 -87.4274 712.942 1.28259 647.362C129.121 552.846 171.282 371.272 81.2855 198.074C-5.43276 31.1892 15.8941 -69.9575 -154.334 -187.592C-276.533 -272.286 -422.738 -241.092 -531.524 -221.889Z" stroke="#7776D1" stroke-width="0.7038" stroke-miterlimit="10" stroke-linecap="round" stroke-linejoin="round"/>
<path opacity="0.5122" d="M-532.775 -233.563C-754.365 -197.713 -773.436 12.2506 -889.695 142.493C-948.635 208.513 -1079.7 307.844 -1018.84 474.147C-960.338 633.978 -922.091 761.752 -744.213 815.217C-517.088 883.495 -481.044 828.389 -332.495 870.128C-150.21 921.336 -86.0174 717.668 4.80762 652.476C136.7 557.818 179.161 370.831 90.8032 196.857C4.80758 27.5566 14.4136 -66.4309 -157.595 -184.047C-281.01 -268.636 -423.937 -251.161 -532.775 -233.563Z" stroke="#7776D1" stroke-width="0.6882" stroke-miterlimit="10" stroke-linecap="round" stroke-linejoin="round"/>
<path opacity="0.4878" d="M-534.026 -245.236C-760.075 -211.944 -773.154 14.7368 -890.875 147.642C-950.203 214.632 -1085.11 312.005 -1028.28 476.562C-972.465 638.245 -921.191 763.039 -742.996 814.335C-512.329 880.744 -478.717 839.939 -329.974 881.484C-146.103 932.851 -84.5895 722.429 8.35058 657.607C144.297 562.809 187.092 370.408 100.339 195.658C15.0836 23.9416 12.9509 -62.9042 -160.856 -180.485C-285.504 -264.986 -425.135 -261.265 -534.026 -245.236Z" stroke="#7776D1" stroke-width="0.6726" stroke-miterlimit="10" stroke-linecap="round" stroke-linejoin="round"/>
<path opacity="0.4634" d="M-535.296 -256.91C-765.822 -226.245 -772.889 17.2056 -892.074 152.791C-951.808 220.751 -1090.61 316.184 -1037.77 478.961C-984.679 642.495 -920.328 764.291 -741.815 813.436C-507.606 877.922 -476.426 851.454 -327.489 892.841C-142.05 944.366 -83.215 727.19 11.8578 662.756C151.876 567.852 195.006 369.985 109.839 194.477C25.3413 20.3268 11.4523 -59.3597 -164.135 -176.888C-289.982 -261.336 -426.316 -271.405 -535.296 -256.91Z" stroke="#7776D1" stroke-width="0.657" stroke-miterlimit="10" stroke-linecap="round" stroke-linejoin="round"/>
<path opacity="0.439" d="M-536.547 -268.583C-771.55 -240.616 -772.625 19.6744 -893.255 157.94C-953.394 226.87 -1096.16 320.381 -1047.22 481.377C-996.929 646.798 -919.412 765.525 -740.617 812.554C-502.847 875.101 -474.099 863.004 -324.986 904.214C-137.961 955.898 -81.8052 731.986 15.3651 667.905C159.455 572.895 202.92 369.579 119.339 193.313C35.617 16.7296 9.95398 -55.7976 -167.413 -173.291C-294.476 -257.685 -427.515 -281.561 -536.547 -268.583Z" stroke="#7776D1" stroke-width="0.6414" stroke-miterlimit="10" stroke-linecap="round" stroke-linejoin="round"/>
<path opacity="0.4146" d="M-537.798 -280.257C-777.296 -255.04 -772.343 22.1255 -894.436 163.089C-954.98 232.989 -1101.77 324.613 -1056.68 483.775C-1009.27 651.101 -918.513 766.725 -739.436 811.655C-498.105 872.209 -471.808 874.519 -322.501 915.57C-133.889 967.413 -80.4126 736.765 18.8728 673.055C167.052 577.956 210.851 369.156 128.839 192.132C45.8929 13.097 8.45601 -52.2533 -170.709 -169.711C-298.953 -254.053 -428.713 -291.754 -537.798 -280.257Z" stroke="#7776D1" stroke-width="0.6258" stroke-miterlimit="10" stroke-linecap="round" stroke-linejoin="round"/>
<path opacity="0.3902" d="M-539.05 -291.948C-783.007 -269.553 -772.079 24.5765 -895.617 168.22C-956.567 239.09 -1107.46 328.845 -1066.13 486.155C-1021.68 655.403 -917.596 767.871 -738.22 810.738C-493.329 869.264 -469.464 886.034 -319.981 926.891C-129.782 978.893 -78.9851 741.526 22.3977 678.151C174.648 582.982 218.818 368.662 138.357 190.88C56.2213 9.39395 6.97536 -48.7795 -173.97 -166.202C-303.43 -250.403 -429.894 -301.964 -539.05 -291.948Z" stroke="#7776D1" stroke-width="0.6102" stroke-miterlimit="10" stroke-linecap="round" stroke-linejoin="round"/>
<path opacity="0.3659" d="M-540.301 -303.621C-788.735 -284.118 -771.814 27.0451 -896.78 173.369C-958.135 245.191 -1113.19 333.095 -1075.57 488.571C-1034.15 659.759 -916.679 769.034 -737.021 809.856C-488.552 866.319 -467.066 897.266 -317.46 938.265C-125.569 990.037 -77.5393 746.34 25.9409 683.317C182.281 588.095 226.821 368.256 147.893 189.716C66.5681 5.7613 5.51275 -45.2176 -177.23 -162.605C-307.924 -246.753 -431.075 -312.191 -540.301 -303.621Z" stroke="#7776D1" stroke-width="0.5946" stroke-miterlimit="10" stroke-linecap="round" stroke-linejoin="round"/>
<path opacity="0.3415" d="M-541.553 -315.295C-794.446 -298.754 -771.55 29.4963 -897.961 178.518C-959.722 251.31 -1119.02 337.362 -1085.04 490.969C-1046.74 664.097 -915.781 770.163 -735.823 808.957C-483.776 863.304 -464.758 908.799 -314.957 949.621C-121.498 1001.55 -76.1297 751.154 29.4481 688.449C189.894 593.192 234.787 367.798 157.393 188.534C76.914 2.12884 4.01424 -41.6732 -180.509 -159.025C-312.402 -243.102 -432.256 -322.436 -541.553 -315.295Z" stroke="#7776D1" stroke-width="0.5791" stroke-miterlimit="10" stroke-linecap="round" stroke-linejoin="round"/>
<path opacity="0.3171" d="M-542.804 -326.968C-800.138 -313.443 -771.285 31.965 -899.142 183.65C-961.325 257.411 -1124.91 341.612 -1094.49 493.367C-1059.39 668.452 -914.864 771.256 -734.624 808.058C-479.017 860.253 -462.448 920.331 -312.454 960.959C-117.408 1013.05 -74.7192 755.95 32.9736 693.58C197.509 598.288 242.807 367.34 166.911 187.335C87.2782 -1.53898 2.55171 -38.1465 -183.787 -155.463C-316.896 -239.452 -433.437 -332.717 -542.804 -326.968Z" stroke="#7776D1" stroke-width="0.5635" stroke-miterlimit="10" stroke-linecap="round" stroke-linejoin="round"/>
<path opacity="0.2927" d="M-544.055 -338.642C-805.832 -328.22 -771.039 34.4161 -900.323 188.799C-962.894 263.53 -1130.87 345.88 -1103.93 495.766C-1072.14 672.808 -913.948 772.332 -733.408 807.158C-474.223 857.168 -460.104 931.864 -309.934 972.315C-113.302 1024.56 -73.2917 760.764 36.4985 698.711C205.123 603.401 250.827 366.881 176.429 186.136C97.6772 -5.20672 1.0533 -34.602 -187.048 -151.901C-321.373 -235.802 -434.6 -342.997 -544.055 -338.642Z" stroke="#7776D1" stroke-width="0.5479" stroke-miterlimit="10" stroke-linecap="round" stroke-linejoin="round"/>
<path opacity="0.2683" d="M-545.325 -350.315C-811.525 -343.05 -770.792 36.8671 -901.504 193.948C-964.498 269.632 -1136.88 350.129 -1113.4 498.181C-1085.02 677.181 -913.049 773.39 -732.227 806.277C-469.464 854.046 -457.813 943.414 -307.449 983.689C-109.231 1036.1 -71.8818 765.614 40.0059 703.878C212.737 608.568 258.846 366.458 185.929 184.972C108.059 -8.85693 -0.444979 -31.0401 -190.344 -148.304C-325.868 -232.17 -435.764 -353.313 -545.325 -350.315Z" stroke="#7776D1" stroke-width="0.5323" stroke-miterlimit="10" stroke-linecap="round" stroke-linejoin="round"/>
<path opacity="0.2439" d="M-546.576 -361.989C-817.183 -357.933 -770.545 39.3183 -902.702 199.097C-966.102 275.75 -1142.98 354.361 -1122.86 500.58C-1097.98 681.536 -912.15 774.43 -731.028 805.377C-464.687 850.872 -455.504 954.929 -304.928 995.045C-105.141 1047.63 -70.4539 770.445 43.5312 709.01C220.369 613.7 266.901 365.982 195.447 183.756C118.476 -12.5423 -1.90767 -27.5309 -193.604 -144.76C-330.344 -228.519 -436.909 -363.629 -546.576 -361.989Z" stroke="#7776D1" stroke-width="0.5167" stroke-miterlimit="10" stroke-linecap="round" stroke-linejoin="round"/>
<path opacity="0.2195" d="M-547.827 -373.662C-822.823 -372.886 -770.298 41.787 -903.866 204.246C-967.688 281.852 -1149.11 358.593 -1132.31 502.978C-1111.04 685.856 -911.251 775.453 -729.83 804.478C-459.911 847.663 -453.195 966.461 -302.425 1006.38C-101.052 1059.13 -69.044 775.277 47.0562 714.141C228.001 618.848 274.956 365.523 204.965 182.574C128.91 -16.2101 -3.38834 -23.9866 -196.883 -141.18C-334.821 -224.869 -438.055 -373.979 -547.827 -373.662Z" stroke="#7776D1" stroke-width="0.5011" stroke-miterlimit="10" stroke-linecap="round" stroke-linejoin="round"/>
<path opacity="0.1951" d="M-549.079 -385.353C-828.463 -387.928 -770.052 44.2028 -905.047 209.377C-969.274 287.953 -1155.3 362.773 -1141.76 505.376C-1124.22 690.177 -910.334 776.441 -728.614 803.579C-455.134 844.436 -450.869 977.993 -299.922 1017.76C-96.963 1070.66 -67.6163 780.144 50.5637 719.29C235.598 624.033 283.011 365.065 214.465 181.393C139.362 -19.8779 -4.88658 -20.4422 -200.161 -137.6C-339.316 -221.219 -439.183 -384.33 -549.079 -385.353Z" stroke="#7776D1" stroke-width="0.4855" stroke-miterlimit="10" stroke-linecap="round" stroke-linejoin="round"/>
<path opacity="0.1707" d="M-550.33 -397.027C-834.068 -403.004 -769.805 46.6539 -906.227 214.526C-970.861 294.054 -1161.55 366.952 -1151.22 507.774C-1137.51 694.479 -909.453 777.41 -727.433 802.679C-450.375 841.121 -448.56 989.526 -297.42 1029.1C-92.8739 1082.16 -66.2063 784.975 54.0889 724.404C243.23 629.182 291.101 364.589 223.983 180.176C149.831 -23.581 -6.36713 -16.9331 -203.44 -134.038C-343.793 -217.569 -440.311 -394.699 -550.33 -397.027Z" stroke="#7776D1" stroke-width="0.4699" stroke-miterlimit="10" stroke-linecap="round" stroke-linejoin="round"/>
<path opacity="0.1463" d="M-551.582 -408.7C-839.656 -418.134 -769.858 48.8757 -907.409 219.675C-972.606 300.05 -1167.88 371.096 -1160.69 510.172C-1150.94 698.747 -908.59 778.38 -726.234 801.78C-445.616 837.806 -446.251 1001.06 -294.917 1040.45C-88.8024 1093.69 -64.7962 789.825 57.5963 729.553C250.844 634.384 299.191 364.13 233.483 178.995C160.301 -27.2488 -7.8654 -13.3888 -206.718 -130.459C-348.287 -213.936 -441.421 -405.085 -551.582 -408.7Z" stroke="#7776D1" stroke-width="0.4543" stroke-miterlimit="10" stroke-linecap="round" stroke-linejoin="round"/>
<path opacity="0.122" d="M-552.833 -420.374C-845.225 -433.334 -769.576 51.3446 -908.589 224.807C-974.174 306.169 -1174.23 375.187 -1170.14 512.571C-1164.46 702.961 -907.708 779.315 -725.036 800.881C-440.875 834.438 -443.942 1012.57 -292.396 1051.81C-84.6955 1105.2 -63.3684 794.692 61.1392 734.684C258.494 639.568 307.317 363.672 243.018 177.796C170.824 -30.9517 -9.32815 -9.86187 -209.961 -126.896C-352.764 -210.286 -442.532 -415.471 -552.833 -420.374Z" stroke="#7776D1" stroke-width="0.4387" stroke-miterlimit="10" stroke-linecap="round" stroke-linejoin="round"/>
<path opacity="0.0976" d="M-554.102 -432.047C-850.777 -448.605 -769.311 53.8309 -909.788 229.956C-975.778 312.287 -1180.66 379.242 -1179.6 514.969C-1178.1 707.158 -906.844 780.25 -723.837 799.982C-436.133 831.017 -441.615 1024.11 -289.893 1063.15C-80.6063 1116.7 -61.9408 799.541 64.6643 739.816C266.126 644.77 315.442 363.196 252.536 176.596C181.346 -34.6196 -10.8087 -6.31757 -213.239 -123.317C-357.241 -206.636 -443.624 -425.893 -554.102 -432.047Z" stroke="#7776D1" stroke-width="0.4232" stroke-miterlimit="10" stroke-linecap="round" stroke-linejoin="round"/>
<path opacity="0.0732" d="M-555.353 -443.721C-856.294 -463.911 -769.012 56.3171 -910.951 235.105C-977.329 318.424 -1187.09 383.245 -1189.05 517.384C-1191.87 711.302 -905.963 781.166 -722.638 799.1C-431.392 827.596 -439.306 1035.66 -287.39 1074.52C-76.5171 1128.23 -60.5306 804.443 68.172 744.982C273.74 649.99 323.55 362.755 262.054 175.415C191.886 -38.3051 -12.2892 -2.77328 -216.5 -119.755C-361.735 -202.986 -444.699 -436.297 -555.353 -443.721Z" stroke="#7776D1" stroke-width="0.4076" stroke-miterlimit="10" stroke-linecap="round" stroke-linejoin="round"/>
<path opacity="0.0488" d="M-556.605 -455.394C-861.793 -479.27 -768.73 58.8035 -912.132 240.254C-978.916 324.543 -1193.6 387.195 -1198.5 519.783C-1205.76 715.393 -905.117 782.066 -721.423 798.2C-426.633 824.122 -436.98 1047.19 -284.87 1085.88C-72.4282 1139.75 -59.1032 809.31 71.7145 750.114C281.389 655.227 331.711 362.296 271.572 174.233C202.444 -41.9905 -13.7699 0.771113 -219.779 -116.175C-366.213 -199.336 -445.775 -446.736 -556.605 -455.394Z" stroke="#7776D1" stroke-width="0.392" stroke-miterlimit="10" stroke-linecap="round" stroke-linejoin="round"/>
<path opacity="0.0244" d="M-557.856 -467.068C-867.275 -494.7 -768.448 61.2722 -913.313 245.403C-980.485 330.662 -1200.12 391.092 -1207.96 522.181C-1219.75 719.413 -904.271 782.93 -720.242 797.301C-421.927 820.595 -434.671 1058.72 -282.385 1097.23C-68.3566 1151.26 -57.6578 814.353 75.2044 755.245C289.092 660.693 340.1 361.75 281.054 173.034C213.284 -45.7817 -15.2858 4.29782 -223.075 -112.613C-370.707 -195.703 -446.832 -457.157 -557.856 -467.068Z" stroke="#7776D1" stroke-width="0.3764" stroke-miterlimit="10" stroke-linecap="round" stroke-linejoin="round"/>
</svg>
