<svg width="19" height="17" viewBox="0 0 19 17" fill="none" xmlns="http://www.w3.org/2000/svg">
<path fill-rule="evenodd" clip-rule="evenodd" d="M2.83333 0C1.26853 0 0 1.26853 0 2.83333V14.1667C0 15.7315 1.26853 17 2.83333 17H10.3889C11.9537 17 13.2222 15.7315 13.2222 14.1667V14H11.3333V14.1667C11.3333 14.6883 10.9105 15.1111 10.3889 15.1111H2.83333C2.31173 15.1111 1.88889 14.6883 1.88889 14.1667V2.83333C1.88889 2.31173 2.31173 1.88889 2.83333 1.88889H10.3889C10.9105 1.88889 11.3333 2.31173 11.3333 2.83333V3H13.2222V2.83333C13.2222 1.26853 11.9537 0 10.3889 0H2.83333Z" fill="#7776D1"/>
<path fill-rule="evenodd" clip-rule="evenodd" d="M11.8205 12L19 8.5L11.8205 5V7.89378L5 7.89378V9.10622H11.8205V12Z" fill="#7776D1"/>
</svg>
