<svg width="59" height="58" viewBox="0 0 59 58" fill="none" xmlns="http://www.w3.org/2000/svg">
<path d="M43.0473 40.9084L16.931 40.9084C15.6263 40.9084 14.5685 39.8507 14.5685 38.5459C14.5685 37.2412 15.6263 36.1834 16.931 36.1834L43.0473 36.1834L37.4548 30.591C36.5761 29.7123 36.5761 28.2877 37.4548 27.409C38.3335 26.5303 39.7581 26.5303 40.6368 27.409L50.1827 36.955C51.0614 37.8336 51.0614 39.2583 50.1827 40.1369L40.6368 49.6829C39.7581 50.5616 38.3335 50.5616 37.4548 49.6829C36.5761 48.8042 36.5761 47.3796 37.4548 46.5009L43.0473 40.9084ZM15.9524 17.0916L42.0687 17.0916C43.3734 17.0916 44.4312 18.1493 44.4312 19.4541C44.4312 20.7588 43.3734 21.8166 42.0687 21.8166L15.9524 21.8166L21.5449 27.409C22.4236 28.2877 22.4236 29.7123 21.5449 30.591C20.6662 31.4697 19.2416 31.4697 18.3629 30.591L8.81698 21.0451C7.9383 20.1664 7.9383 18.7418 8.81698 17.8631L18.3629 8.31713C19.2416 7.43845 20.6662 7.43845 21.5449 8.31713C22.4236 9.19581 22.4236 10.6204 21.5449 11.4991L15.9524 17.0916Z" fill="url(#paint0_linear)"/>
<defs>
<linearGradient id="paint0_linear" x1="22.3404" y1="-3.61529" x2="17.5416" y2="80.3819" gradientUnits="userSpaceOnUse">
<stop offset="0.277134" stop-color="#10BBEB"/>
<stop offset="0.894626" stop-color="#00FFE0"/>
</linearGradient>
</defs>
</svg>
