<svg width="20" height="26" viewBox="0 0 20 26" fill="none" xmlns="http://www.w3.org/2000/svg">
<path d="M2.92479 9.63372C2.92479 8.15582 4.15042 6.97898 5.62674 6.97898H13.5376L11.8663 8.62109C11.3092 9.16846 11.3092 10.099 11.8663 10.6464C12.1448 10.92 12.5348 11.0569 12.8969 11.0569C13.2591 11.0569 13.649 10.92 13.9276 10.6464L18.1059 6.54108C18.663 5.99371 18.663 5.06318 18.1059 4.51581L13.9276 0.410528C13.3705 -0.136843 12.4234 -0.136843 11.8663 0.410528C11.3092 0.957899 11.3092 1.88843 11.8663 2.4358L13.5376 4.07791H5.62674C2.50696 4.07791 0 6.56845 0 9.60635V17.5159L2.92479 14.6422V9.63372Z" fill="#241C46"/>
<path d="M17.0752 11.3305V16.3663C17.0752 17.8442 15.8496 19.021 14.3733 19.021H6.46239L8.1337 17.3789C8.69081 16.8315 8.69081 15.901 8.1337 15.3536C7.5766 14.8063 6.62952 14.8063 6.07242 15.3536L1.89415 19.4589C1.33704 20.0063 1.33704 20.9368 1.89415 21.4842L6.07242 25.5895C6.35097 25.8632 6.74094 26 7.10306 26C7.46518 26 7.85515 25.8632 8.1337 25.5895C8.69081 25.0421 8.69081 24.1116 8.1337 23.5642L6.46239 21.9221H14.3733C17.493 21.9221 20 19.4316 20 16.3936V8.45677L17.0752 11.3305Z" fill="#241C46"/>
</svg>
