<svg width="18" height="17" viewBox="0 0 18 17" fill="none" xmlns="http://www.w3.org/2000/svg">
<path d="M11.9997 14.3756H1.99995V2.37561C1.99995 2.11039 1.89459 1.85604 1.70706 1.6685C1.51953 1.48097 1.26518 1.37561 0.999974 1.37561C0.734765 1.37561 0.480417 1.48097 0.292886 1.6685C0.105354 1.85604 0 2.11039 0 2.37561V15.3756C0 15.6408 0.105354 15.8952 0.292886 16.0827C0.480417 16.2703 0.734765 16.3756 0.999974 16.3756H11.9997C12.2649 16.3756 12.5193 16.2703 12.7068 16.0827C12.8943 15.8952 12.9997 15.6408 12.9997 15.3756C12.9997 15.1104 12.8943 14.856 12.7068 14.6685C12.5193 14.481 12.2649 14.3756 11.9997 14.3756Z" fill="#7776D1"/>
<path fill-rule="evenodd" clip-rule="evenodd" d="M7.70716 3.18575L13.5416 3.18575C13.8996 3.18575 14.1899 3.476 14.1899 3.83403L14.1899 9.66846C14.1899 10.0265 13.8996 10.3167 13.5416 10.3167C13.1836 10.3167 12.8933 10.0265 12.8933 9.66846L12.8933 5.39909L8.16555 10.1269L7.24876 9.21006L11.9765 4.4823L7.70716 4.4823C7.34913 4.4823 7.05889 4.19206 7.05889 3.83403C7.05889 3.476 7.34913 3.18575 7.70716 3.18575Z" fill="#7776D1"/>
</svg>
