<svg width="20" height="20" viewBox="0 0 20 20" fill="none" xmlns="http://www.w3.org/2000/svg">
<path d="M19 0H5.00038C4.73517 0 4.48083 0.105357 4.29329 0.292893C4.10576 0.48043 4.00041 0.734783 4.00041 1V15C4.00041 15.2652 4.10576 15.5196 4.29329 15.7071C4.48083 15.8946 4.73517 16 5.00038 16H19C19.2652 16 19.5196 15.8946 19.7071 15.7071C19.8946 15.5196 20 15.2652 20 15V1C20 0.734783 19.8946 0.48043 19.7071 0.292893C19.5196 0.105357 19.2652 0 19 0ZM18.0001 14H6.00036V2H18.0001V14Z" fill="#7776D1"/>
<path d="M11.9997 18H1.99995V6C1.99995 5.73478 1.89459 5.48043 1.70706 5.29289C1.51953 5.10536 1.26518 5 0.999974 5C0.734765 5 0.480417 5.10536 0.292886 5.29289C0.105354 5.48043 0 5.73478 0 6V19C0 19.2652 0.105354 19.5196 0.292886 19.7071C0.480417 19.8946 0.734765 20 0.999974 20H11.9997C12.2649 20 12.5193 19.8946 12.7068 19.7071C12.8943 19.5196 12.9997 19.2652 12.9997 19C12.9997 18.7348 12.8943 18.4804 12.7068 18.2929C12.5193 18.1054 12.2649 18 11.9997 18Z" fill="#7776D1"/>
</svg>
