<svg width="130" height="130" viewBox="0 0 130 130" fill="none" xmlns="http://www.w3.org/2000/svg">
<path fill-rule="evenodd" clip-rule="evenodd" d="M65 130C100.898 130 130 100.899 130 65C130 29.1015 100.898 0 65 0C29.1015 0 0 29.1015 0 65C0 100.899 29.1015 130 65 130ZM68.2842 30.1716L93.7401 55.6274C95.3022 57.1895 95.3022 59.7222 93.7401 61.2843C92.1779 62.8464 89.6453 62.8464 88.0832 61.2843L69.4558 42.6569V100H61.4558V42.6569L42.8284 61.2843C41.2663 62.8464 38.7336 62.8464 37.1715 61.2843C35.6094 59.7222 35.6094 57.1895 37.1715 55.6274L62.6273 30.1716C64.1895 28.6095 66.7221 28.6095 68.2842 30.1716Z" fill="#0AD5E7"/>
</svg>
