<svg width="175" height="62" fill="none" xmlns="http://www.w3.org/2000/svg"><g filter="url(#filter0_d)"><path d="M123.982 17.952a1.202 1.202 0 00-1.046-1.793H111.2a1.202 1.202 0 100 2.403h11.736c.433 0 .833-.233 1.046-.61z" fill="url(#paint0_linear)"/><path d="M123.982 17.952a1.202 1.202 0 00-1.046-1.793H111.2a1.202 1.202 0 100 2.403h11.736c.433 0 .833-.233 1.046-.61z" fill="url(#paint1_linear)"/><path d="M123.982 27.668a1.202 1.202 0 00-1.046-1.793H111.2a1.202 1.202 0 100 2.403h11.736c.433 0 .833-.233 1.046-.61z" fill="url(#paint2_linear)"/><path d="M123.982 37.383a1.202 1.202 0 00-1.046-1.793H111.2a1.202 1.202 0 100 2.403h11.736c.433 0 .833-.233 1.046-.61z" fill="url(#paint3_linear)"/><path d="M154.998 22.925V21.54a5.434 5.434 0 00-1.547-3.805 5.23 5.23 0 00-3.733-1.576h-7.725a2 2 0 00-2 2v18.662a1.18 1.18 0 002.358 0v-6.516a2 2 0 012-2h1.253c.72 0 1.384.387 1.739 1.013l4.59 8.084a1.182 1.182 0 002.056-1.167l-4.392-7.735a.13.13 0 01.114-.195 5.196 5.196 0 002.023-.407 5.276 5.276 0 001.715-1.166 5.39 5.39 0 001.146-1.747 5.465 5.465 0 00.403-2.06zm-12.647-2.363a2 2 0 012-2h5.367a2.902 2.902 0 012.064.874c.547.558.856 1.315.858 2.104v1.385a3.017 3.017 0 01-.858 2.103 2.902 2.902 0 01-2.064.874h-5.367a2 2 0 01-2-2v-3.34z" fill="url(#paint4_linear)"/><path d="M35.004 22.925V21.54a5.433 5.433 0 00-1.546-3.805 5.23 5.23 0 00-3.734-1.576H22a2 2 0 00-2 2v18.662a1.18 1.18 0 002.358 0v-6.516a2 2 0 012-2h1.273a2 2 0 011.74 1.013l4.589 8.084a1.182 1.182 0 002.056-1.167L29.624 28.5a.13.13 0 01.114-.195 5.23 5.23 0 003.725-1.58 5.433 5.433 0 001.541-3.8zm-12.646-2.363a2 2 0 012-2h5.366a2.901 2.901 0 012.064.874 3.01 3.01 0 01.858 2.104v1.385a3.014 3.014 0 01-.858 2.103 2.901 2.901 0 01-2.064.874h-5.366a2 2 0 01-2-2v-3.34z" fill="url(#paint5_linear)"/><path d="M50.545 37.993c.484 0 .92-.296 1.098-.746l3.961-9.988c.668-1.683 3.05-1.683 3.718 0l3.961 9.988a1.181 1.181 0 002.196-.87l-6.157-15.529c-.667-1.684-3.05-1.684-3.718 0l-6.157 15.528a1.181 1.181 0 001.098 1.617z" fill="url(#paint6_linear)"/><path d="M94.068 37.383a1.201 1.201 0 00-1.045-1.793h-5.51c-1.533 0-2.496-1.652-1.74-2.986l7.625-13.459c.755-1.333-.208-2.986-1.74-2.986h-10.46a1.201 1.201 0 100 2.403h6.382c1.532 0 2.496 1.653 1.74 2.986L81.363 35.59a1.608 1.608 0 001.398 2.403h10.262a1.2 1.2 0 001.045-.61z" fill="url(#paint7_linear)"/><path d="M123.982 27.668a1.202 1.202 0 00-1.046-1.793H111.2a1.202 1.202 0 100 2.403h11.736c.433 0 .833-.233 1.046-.61z" fill="url(#paint8_linear)"/><path d="M123.982 37.383a1.202 1.202 0 00-1.046-1.793H111.2a1.202 1.202 0 100 2.403h11.736c.433 0 .833-.233 1.046-.61z" fill="url(#paint9_linear)"/><path d="M50.545 37.993c.484 0 .92-.296 1.098-.746l3.961-9.988c.668-1.683 3.05-1.683 3.718 0l3.961 9.988a1.181 1.181 0 002.196-.87l-6.157-15.529c-.667-1.684-3.05-1.684-3.718 0l-6.157 15.528a1.181 1.181 0 001.098 1.617z" fill="url(#paint10_linear)"/></g><defs><linearGradient id="paint0_linear" x1="3.125" y1="16" x2="15.242" y2="82.693" gradientUnits="userSpaceOnUse"><stop offset=".277" stop-color="#10BBEB"/><stop offset=".895" stop-color="#00FFE0"/></linearGradient><linearGradient id="paint1_linear" x1="3.125" y1="16" x2="15.242" y2="82.693" gradientUnits="userSpaceOnUse"><stop offset=".277" stop-color="#10BBEB"/><stop offset=".895" stop-color="#00FFE0"/></linearGradient><linearGradient id="paint2_linear" x1="3.125" y1="16" x2="15.242" y2="82.693" gradientUnits="userSpaceOnUse"><stop offset=".277" stop-color="#10BBEB"/><stop offset=".895" stop-color="#00FFE0"/></linearGradient><linearGradient id="paint3_linear" x1="3.125" y1="16" x2="15.242" y2="82.693" gradientUnits="userSpaceOnUse"><stop offset=".277" stop-color="#10BBEB"/><stop offset=".895" stop-color="#00FFE0"/></linearGradient><linearGradient id="paint4_linear" x1="3.125" y1="16" x2="15.242" y2="82.693" gradientUnits="userSpaceOnUse"><stop offset=".277" stop-color="#10BBEB"/><stop offset=".895" stop-color="#00FFE0"/></linearGradient><linearGradient id="paint5_linear" x1="3.125" y1="16" x2="15.242" y2="82.693" gradientUnits="userSpaceOnUse"><stop offset=".277" stop-color="#10BBEB"/><stop offset=".895" stop-color="#00FFE0"/></linearGradient><linearGradient id="paint6_linear" x1="3.125" y1="16" x2="15.242" y2="82.693" gradientUnits="userSpaceOnUse"><stop offset=".277" stop-color="#10BBEB"/><stop offset=".895" stop-color="#00FFE0"/></linearGradient><linearGradient id="paint7_linear" x1="3.125" y1="16" x2="15.242" y2="82.693" gradientUnits="userSpaceOnUse"><stop offset=".277" stop-color="#10BBEB"/><stop offset=".895" stop-color="#00FFE0"/></linearGradient><linearGradient id="paint8_linear" x1="3.125" y1="16" x2="15.242" y2="82.693" gradientUnits="userSpaceOnUse"><stop offset=".277" stop-color="#10BBEB"/><stop offset=".895" stop-color="#00FFE0"/></linearGradient><linearGradient id="paint9_linear" x1="3.125" y1="16" x2="15.242" y2="82.693" gradientUnits="userSpaceOnUse"><stop offset=".277" stop-color="#10BBEB"/><stop offset=".895" stop-color="#00FFE0"/></linearGradient><linearGradient id="paint10_linear" x1="3.125" y1="16" x2="15.242" y2="82.693" gradientUnits="userSpaceOnUse"><stop offset=".277" stop-color="#10BBEB"/><stop offset=".895" stop-color="#00FFE0"/></linearGradient><filter id="filter0_d" x="0" y=".159" width="174.998" height="61.841" filterUnits="userSpaceOnUse" color-interpolation-filters="sRGB"><feFlood flood-opacity="0" result="BackgroundImageFix"/><feColorMatrix in="SourceAlpha" values="0 0 0 0 0 0 0 0 0 0 0 0 0 0 0 0 0 0 127 0"/><feOffset dy="4"/><feGaussianBlur stdDeviation="10"/><feColorMatrix values="0 0 0 0 0.0697633 0 0 0 0 0.395781 0 0 0 0 0.579167 0 0 0 1 0"/><feBlend in2="BackgroundImageFix" result="effect1_dropShadow"/><feBlend in="SourceGraphic" in2="effect1_dropShadow" result="shape"/></filter></defs></svg>